<svg id="svg" version="1.1" xmlns="http://www.w3.org/2000/svg" xmlns:xlink="http://www.w3.org/1999/xlink" width="425" height="425" viewBox="0, 0, 425,425"><g id="svgg"><path id="path0" d="M352.800 6.400 C 352.800 6.626,351.667 6.800,350.200 6.800 C 348.733 6.800,347.600 6.974,347.600 7.200 C 347.600 7.420,346.970 7.600,346.200 7.600 C 345.430 7.600,344.800 7.780,344.800 8.000 C 344.800 8.220,344.294 8.400,343.676 8.400 C 343.059 8.400,342.204 8.664,341.776 8.987 C 341.349 9.310,340.685 9.580,340.300 9.587 C 339.915 9.594,339.600 9.780,339.600 10.000 C 339.600 10.220,339.280 10.400,338.888 10.400 C 338.497 10.400,337.917 10.760,337.600 11.200 C 337.283 11.640,336.791 12.000,336.506 12.000 C 335.684 12.000,329.431 18.475,328.366 20.429 C 327.835 21.403,327.310 22.290,327.199 22.400 C 327.000 22.599,326.711 23.213,325.455 26.114 C 325.095 26.946,324.800 28.161,324.800 28.814 C 324.800 29.466,324.620 30.000,324.400 30.000 C 324.180 30.000,324.000 30.540,324.000 31.200 C 324.000 31.860,323.820 32.400,323.600 32.400 C 323.380 32.400,323.200 33.120,323.200 34.000 C 323.200 34.880,323.020 35.600,322.800 35.600 C 322.580 35.600,322.400 36.305,322.400 37.167 C 322.400 38.028,322.216 38.795,321.991 38.870 C 321.767 38.944,321.558 39.679,321.527 40.503 C 321.496 41.326,321.320 42.000,321.135 42.000 C 320.951 42.000,320.800 42.540,320.800 43.200 C 320.800 43.860,320.639 44.400,320.442 44.400 C 320.245 44.400,319.985 45.075,319.865 45.900 C 319.449 48.741,319.108 50.000,318.755 50.000 C 318.560 50.000,318.400 50.810,318.400 51.800 C 318.400 52.847,318.215 53.600,317.958 53.600 C 317.675 53.600,317.585 54.210,317.707 55.300 C 317.877 56.806,317.278 59.797,316.030 63.685 C 315.569 65.117,315.818 65.269,320.500 66.418 C 322.907 67.008,324.400 67.571,324.400 67.887 C 324.400 68.169,324.670 68.400,325.000 68.400 C 325.330 68.400,325.600 68.580,325.600 68.800 C 325.600 69.020,326.219 69.200,326.976 69.200 C 327.733 69.200,328.464 69.380,328.600 69.600 C 328.736 69.820,329.366 70.000,330.000 70.000 C 330.634 70.000,331.264 70.180,331.400 70.400 C 331.536 70.620,332.177 70.800,332.824 70.800 C 333.471 70.800,334.000 70.962,334.000 71.160 C 334.000 71.358,334.765 71.619,335.700 71.741 C 338.960 72.166,340.409 72.491,340.627 72.844 C 340.748 73.040,341.347 73.200,341.957 73.200 C 342.567 73.200,343.195 73.329,343.353 73.486 C 344.504 74.637,360.346 75.458,361.000 74.400 C 361.136 74.180,361.777 74.000,362.424 74.000 C 363.071 74.000,363.600 73.859,363.600 73.687 C 363.600 73.515,364.455 73.126,365.500 72.822 C 366.545 72.518,367.490 72.164,367.600 72.035 C 367.935 71.641,369.564 70.800,369.990 70.800 C 370.415 70.800,371.501 69.979,373.032 68.500 C 373.544 68.005,374.152 67.600,374.382 67.600 C 374.612 67.600,374.800 67.424,374.800 67.209 C 374.800 66.993,375.745 65.866,376.900 64.703 C 378.055 63.539,379.255 62.095,379.568 61.494 C 379.880 60.892,380.285 60.400,380.468 60.400 C 380.650 60.400,380.800 60.040,380.800 59.600 C 380.800 59.160,380.947 58.800,381.126 58.800 C 381.535 58.800,383.200 55.719,383.200 54.962 C 383.200 54.653,383.380 54.400,383.600 54.400 C 383.820 54.400,384.000 53.781,384.000 53.024 C 384.000 52.267,384.180 51.536,384.400 51.400 C 384.620 51.264,384.800 50.623,384.800 49.976 C 384.800 49.329,384.980 48.800,385.200 48.800 C 385.420 48.800,385.600 48.080,385.600 47.200 C 385.600 46.320,385.780 45.600,386.000 45.600 C 386.220 45.600,386.400 45.060,386.400 44.400 C 386.400 43.740,386.580 43.200,386.800 43.200 C 387.020 43.200,387.200 42.390,387.200 41.400 C 387.200 40.410,387.343 39.600,387.517 39.600 C 387.692 39.600,388.067 38.475,388.351 37.100 C 388.635 35.725,389.018 34.240,389.202 33.800 C 389.534 33.009,389.987 31.324,390.271 29.829 C 390.351 29.404,390.683 28.273,391.008 27.315 C 391.334 26.356,391.600 24.858,391.600 23.986 C 391.600 23.114,391.780 22.400,392.000 22.400 C 392.220 22.400,392.400 21.680,392.400 20.800 C 392.400 19.920,392.580 19.200,392.800 19.200 C 393.423 19.200,393.278 15.620,392.629 14.971 C 392.314 14.657,391.425 14.400,390.652 14.400 C 389.879 14.400,389.136 14.220,389.000 14.000 C 388.864 13.780,388.234 13.600,387.600 13.600 C 386.966 13.600,386.336 13.420,386.200 13.200 C 386.064 12.980,385.333 12.800,384.576 12.800 C 383.819 12.800,383.200 12.620,383.200 12.400 C 383.200 12.180,382.718 12.000,382.128 12.000 C 381.131 12.000,379.292 11.522,377.400 10.772 C 376.960 10.597,376.060 10.367,375.400 10.260 C 374.740 10.153,373.480 9.854,372.600 9.596 C 371.720 9.337,369.875 8.933,368.500 8.697 C 367.125 8.461,366.000 8.118,366.000 7.934 C 366.000 7.750,365.280 7.600,364.400 7.600 C 363.520 7.600,362.800 7.420,362.800 7.200 C 362.800 6.975,361.675 6.800,360.224 6.800 C 358.807 6.800,357.536 6.620,357.400 6.400 C 357.264 6.180,356.173 6.000,354.976 6.000 C 353.779 6.000,352.800 6.180,352.800 6.400 " stroke="none" fill="#3fd34b" fill-rule="evenodd"></path><path id="path1" d="M199.017 3.172 C 198.608 3.834,199.459 3.992,200.241 3.400 C 200.975 2.844,200.971 2.825,200.124 2.813 C 199.642 2.806,199.144 2.968,199.017 3.172 M216.200 3.458 C 203.752 6.027,197.924 8.527,191.830 13.912 C 189.772 15.730,190.040 16.450,193.002 17.070 C 197.324 17.975,202.767 18.902,206.800 19.420 C 207.570 19.519,209.820 19.811,211.800 20.069 C 216.513 20.683,241.246 20.672,246.800 20.053 C 249.110 19.796,251.810 19.502,252.800 19.400 C 265.623 18.084,265.112 18.362,262.387 14.181 C 256.892 5.745,248.504 3.148,227.080 3.246 C 221.536 3.272,216.640 3.367,216.200 3.458 M237.600 3.982 C 251.227 4.769,259.113 8.373,262.733 15.469 C 263.800 17.561,263.501 17.837,259.800 18.177 C 258.260 18.318,254.660 18.686,251.800 18.995 C 231.713 21.162,212.506 20.450,194.627 16.874 C 190.357 16.021,190.202 15.769,192.684 13.720 C 202.931 5.259,214.871 2.671,237.600 3.982 M218.256 6.470 C 210.438 7.904,200.088 13.176,201.880 14.812 C 202.231 15.132,207.258 16.251,209.800 16.574 C 210.680 16.685,213.553 17.052,216.183 17.389 C 222.278 18.168,233.695 18.166,241.000 17.384 C 244.080 17.055,247.895 16.673,249.479 16.537 C 252.892 16.242,253.141 15.895,251.641 13.529 C 247.593 7.147,232.254 3.904,218.256 6.470 M191.000 6.400 C 191.136 6.620,191.507 6.800,191.824 6.800 C 192.141 6.800,192.400 6.620,192.400 6.400 C 192.400 6.180,192.029 6.000,191.576 6.000 C 191.123 6.000,190.864 6.180,191.000 6.400 M238.494 6.935 C 245.294 7.911,250.656 11.032,251.766 14.661 C 252.055 15.607,251.187 15.821,243.200 16.773 C 232.075 18.099,202.400 16.346,202.400 14.363 C 202.400 12.607,213.341 7.274,217.153 7.172 C 217.729 7.156,218.560 6.984,219.000 6.789 C 219.892 6.393,235.532 6.511,238.494 6.935 M187.039 8.338 C 186.900 8.561,186.982 8.865,187.220 9.012 C 187.835 9.393,188.232 8.872,187.718 8.358 C 187.431 8.071,187.207 8.064,187.039 8.338 M179.200 14.018 C 179.200 14.248,178.739 14.897,178.176 15.461 C 176.833 16.804,177.123 17.065,178.519 15.770 C 179.460 14.898,179.987 13.600,179.400 13.600 C 179.290 13.600,179.200 13.788,179.200 14.018 M176.974 17.557 C 177.124 17.801,177.652 18.000,178.147 18.000 C 180.424 18.000,180.413 17.915,179.817 30.600 C 179.517 36.980,179.257 43.870,179.238 45.911 C 179.220 47.952,179.021 52.452,178.796 55.911 C 178.571 59.370,178.214 66.250,178.003 71.200 C 177.792 76.150,177.437 82.450,177.213 85.200 C 176.990 87.950,176.787 91.280,176.761 92.600 C 176.736 93.920,176.370 99.379,175.949 104.732 C 175.529 110.084,175.173 115.394,175.160 116.532 C 175.147 117.669,174.810 122.560,174.413 127.400 C 174.015 132.240,173.665 137.100,173.635 138.200 C 173.604 139.300,173.408 142.000,173.198 144.200 C 172.987 146.400,172.717 150.180,172.596 152.600 C 172.476 155.020,172.049 161.410,171.648 166.800 C 171.247 172.190,170.909 177.140,170.898 177.800 C 170.888 178.460,170.596 183.680,170.250 189.400 C 169.138 207.783,168.659 218.630,168.192 236.000 C 168.077 240.290,167.800 248.210,167.577 253.600 C 166.445 280.954,166.684 345.290,168.044 379.502 C 168.349 387.179,168.352 390.762,168.054 391.617 C 167.663 392.740,167.713 392.862,168.715 393.240 C 169.312 393.465,170.324 393.909,170.965 394.226 C 172.851 395.161,172.799 397.907,171.511 365.800 C 170.832 348.881,170.833 272.549,171.512 255.400 C 172.022 242.506,172.268 235.294,172.608 223.245 C 172.709 219.640,172.971 213.970,173.188 210.645 C 173.406 207.320,173.596 203.340,173.611 201.800 C 173.638 198.864,174.757 180.376,175.814 165.400 C 176.156 160.560,176.508 155.095,176.596 153.256 C 176.684 151.417,177.033 146.377,177.371 142.056 C 178.793 123.858,179.239 117.711,179.248 116.200 C 179.253 115.320,179.514 111.540,179.826 107.800 C 180.139 104.060,180.482 99.110,180.587 96.800 C 180.693 94.490,181.057 87.920,181.397 82.200 C 182.533 63.091,183.579 42.236,183.575 38.800 C 183.570 34.741,183.936 25.594,184.244 22.100 C 184.489 19.317,184.812 19.134,188.000 19.973 C 188.770 20.175,190.210 20.443,191.200 20.567 C 196.772 21.269,201.860 22.188,202.274 22.567 C 202.636 22.897,202.660 26.177,202.377 36.400 C 202.173 43.770,201.825 57.000,201.604 65.800 C 201.382 74.600,201.019 84.950,200.797 88.800 C 200.576 92.650,200.221 100.480,200.010 106.200 C 199.798 111.920,199.367 120.380,199.052 125.000 C 198.737 129.620,198.479 134.120,198.478 135.000 C 198.476 138.336,196.692 165.279,195.379 181.800 C 195.047 185.980,194.695 190.840,194.597 192.600 C 194.499 194.360,194.144 199.670,193.809 204.400 C 192.254 226.343,191.646 235.586,191.610 237.800 C 191.590 239.120,191.307 244.070,190.983 248.800 C 190.658 253.530,190.411 258.120,190.434 259.000 C 190.475 260.640,190.341 264.049,189.630 279.400 C 189.406 284.240,189.128 293.150,189.013 299.200 C 188.897 305.250,188.611 317.760,188.378 327.000 C 188.144 336.240,188.008 355.995,188.076 370.900 L 188.200 398.000 190.242 398.000 L 192.284 398.000 192.093 373.300 C 191.988 359.715,192.111 339.690,192.366 328.800 C 193.385 285.304,193.592 277.944,193.976 271.600 C 194.196 267.970,194.389 263.560,194.404 261.800 C 194.438 258.103,195.697 236.346,196.638 223.200 C 196.992 218.250,197.351 212.760,197.435 211.000 C 197.520 209.240,197.778 205.370,198.009 202.400 C 198.239 199.430,198.494 195.560,198.575 193.800 C 198.655 192.040,199.004 187.000,199.349 182.600 C 200.539 167.438,202.748 134.588,202.751 132.000 C 202.752 131.326,202.888 128.562,203.556 115.600 C 204.742 92.608,205.271 79.860,205.616 66.000 C 206.369 35.693,206.767 23.100,206.978 22.889 C 207.097 22.769,209.761 22.872,212.897 23.116 C 216.034 23.360,220.308 23.575,222.395 23.595 C 224.483 23.615,226.317 23.759,226.471 23.915 C 227.419 24.877,227.931 98.891,227.197 128.800 C 226.989 137.270,226.716 149.600,226.591 156.200 C 226.465 162.800,226.094 174.050,225.765 181.200 C 225.436 188.350,225.086 196.810,224.988 200.000 C 224.749 207.727,223.725 227.158,222.943 238.800 C 222.595 243.970,222.242 250.000,222.157 252.200 C 222.072 254.400,221.748 259.440,221.438 263.400 C 221.129 267.360,220.856 271.410,220.832 272.400 C 220.808 273.390,220.525 277.260,220.201 281.000 C 219.878 284.740,219.594 288.520,219.570 289.400 C 219.547 290.280,219.191 295.410,218.781 300.800 C 217.554 316.903,216.744 328.886,216.754 330.800 C 216.758 331.790,216.494 336.290,216.167 340.800 C 215.657 347.823,215.257 355.785,215.219 359.673 C 215.213 360.263,214.938 365.843,214.607 372.073 C 214.277 378.303,214.005 386.505,214.003 390.300 L 214.000 397.200 216.000 397.200 L 218.000 397.200 218.005 390.500 C 218.007 386.815,218.277 378.850,218.604 372.800 C 218.931 366.750,219.294 359.370,219.411 356.400 C 219.693 349.234,220.654 332.842,221.474 321.200 C 221.839 316.030,222.125 311.440,222.110 311.000 C 222.095 310.560,222.416 305.790,222.823 300.400 C 223.230 295.010,223.841 286.640,224.180 281.800 C 224.519 276.960,225.159 268.050,225.603 262.000 C 226.046 255.950,226.425 250.280,226.444 249.400 C 226.464 248.520,226.810 242.940,227.214 237.000 C 227.617 231.060,227.945 225.139,227.941 223.841 C 227.938 222.544,228.213 216.514,228.551 210.441 C 230.936 167.695,232.217 88.764,231.236 45.035 C 230.979 33.615,230.911 24.137,231.085 23.974 C 231.258 23.810,234.910 23.577,239.200 23.455 C 243.490 23.333,247.885 23.107,248.966 22.953 L 250.932 22.673 250.649 38.237 C 249.897 79.608,249.504 92.014,247.974 122.600 C 247.732 127.440,247.460 133.290,247.370 135.600 C 247.118 142.098,246.376 154.144,246.195 154.692 C 246.105 154.962,246.014 156.672,245.993 158.492 C 245.958 161.528,245.484 168.577,243.780 191.400 C 243.435 196.020,243.094 201.150,243.021 202.800 C 242.949 204.450,242.601 209.490,242.248 214.000 C 241.050 229.323,240.358 239.169,240.175 243.490 C 240.074 245.860,239.739 251.850,239.431 256.800 C 239.122 261.750,238.871 266.486,238.873 267.325 C 238.876 268.164,238.596 274.824,238.251 282.125 C 237.016 308.267,236.028 350.504,236.012 377.900 L 236.000 397.200 238.100 397.199 L 240.200 397.198 240.254 368.699 C 240.284 353.025,240.516 333.900,240.770 326.200 C 241.024 318.500,241.397 306.080,241.600 298.600 C 241.803 291.120,242.157 282.030,242.386 278.400 C 242.615 274.770,242.874 269.370,242.961 266.400 C 243.137 260.387,244.058 245.378,245.181 230.200 C 245.589 224.700,245.946 219.210,245.975 218.000 C 246.004 216.790,246.268 212.920,246.561 209.400 C 247.201 201.720,247.272 200.777,247.266 200.000 C 247.264 199.670,247.511 196.070,247.814 192.000 C 249.128 174.408,251.637 135.731,251.538 134.600 C 251.500 134.160,251.681 129.300,251.941 123.800 C 253.658 87.524,253.805 82.924,254.727 36.400 L 255.000 22.600 257.200 22.316 C 265.505 21.244,275.245 20.311,275.498 20.565 C 276.577 21.643,275.576 126.485,274.169 159.800 C 273.834 167.720,273.558 175.280,273.556 176.600 C 273.550 179.208,272.404 200.670,271.366 217.600 C 271.009 223.430,270.711 228.740,270.704 229.400 C 270.697 230.060,270.382 234.740,270.003 239.800 C 269.624 244.860,269.307 249.450,269.299 250.000 C 269.290 250.550,269.245 251.450,269.198 252.000 C 269.151 252.550,268.862 256.510,268.556 260.800 C 268.249 265.090,267.716 272.171,267.371 276.536 C 267.025 280.901,266.663 286.211,266.564 288.336 C 266.466 290.461,266.045 296.790,265.629 302.400 C 265.212 308.010,264.888 312.960,264.908 313.400 C 264.928 313.840,264.731 317.980,264.470 322.600 C 263.254 344.146,262.720 356.074,262.395 369.000 C 262.201 376.700,261.917 386.215,261.764 390.145 L 261.486 397.289 262.317 396.845 C 262.774 396.600,263.800 396.400,264.597 396.400 C 265.461 396.400,265.947 396.238,265.800 396.000 C 265.664 395.780,265.744 390.155,265.977 383.500 C 266.210 376.845,266.475 367.890,266.566 363.600 C 266.747 355.090,268.025 329.136,269.088 312.400 C 269.193 310.750,269.268 308.950,269.256 308.400 C 269.243 307.850,269.564 303.080,269.970 297.800 C 270.376 292.520,270.721 287.660,270.736 287.000 C 270.766 285.720,271.638 273.731,272.656 260.600 C 272.997 256.200,273.338 251.250,273.414 249.600 C 273.490 247.950,273.831 242.640,274.172 237.800 C 275.268 222.268,276.356 203.760,276.983 190.000 C 278.275 161.643,278.858 146.650,279.028 137.400 C 279.125 132.120,279.395 118.800,279.628 107.800 C 279.861 96.800,280.038 74.030,280.020 57.200 C 280.002 40.370,280.016 26.330,280.050 26.000 C 280.085 25.670,279.832 24.471,279.488 23.335 C 279.145 22.199,278.984 21.135,279.132 20.971 C 279.279 20.806,279.175 20.801,278.900 20.959 C 278.599 21.133,278.400 21.019,278.400 20.674 C 278.400 19.807,274.773 19.603,270.800 20.247 C 268.930 20.551,266.050 20.894,264.400 21.011 C 260.323 21.300,255.257 21.928,253.800 22.325 C 253.140 22.505,251.160 22.615,249.400 22.571 C 245.409 22.469,231.211 23.145,230.400 23.475 C 230.070 23.609,229.395 23.679,228.900 23.631 C 228.395 23.581,228.000 23.765,228.000 24.048 C 228.000 24.388,227.836 24.347,227.500 23.922 C 226.986 23.275,224.697 23.064,213.000 22.586 C 210.360 22.478,207.806 22.301,207.325 22.193 C 206.843 22.085,206.349 22.159,206.227 22.357 C 206.012 22.704,205.088 22.550,202.000 21.655 C 201.230 21.432,199.520 21.143,198.200 21.014 C 196.880 20.884,193.640 20.412,191.000 19.964 C 188.360 19.517,185.030 19.053,183.600 18.933 C 182.170 18.813,180.910 18.582,180.800 18.419 C 180.690 18.256,180.060 17.997,179.400 17.843 C 178.740 17.688,177.862 17.461,177.450 17.338 C 176.963 17.193,176.796 17.270,176.974 17.557 M317.800 66.000 C 318.240 66.189,318.870 66.344,319.200 66.344 C 319.578 66.344,319.504 66.217,319.000 66.000 C 318.560 65.811,317.930 65.656,317.600 65.656 C 317.222 65.656,317.296 65.783,317.800 66.000 M165.377 96.000 C 165.377 102.490,165.432 105.145,165.499 101.900 C 165.566 98.655,165.566 93.345,165.499 90.100 C 165.432 86.855,165.377 89.510,165.377 96.000 M83.350 164.810 C 83.125 165.035,82.279 165.244,81.470 165.274 C 80.001 165.330,80.000 165.331,79.981 167.165 C 79.780 186.219,78.930 212.737,77.748 236.800 C 77.397 243.950,77.101 250.430,77.091 251.200 C 77.080 251.970,76.914 255.272,76.721 258.539 C 76.528 261.805,76.479 264.820,76.612 265.239 C 76.982 266.404,77.600 266.144,77.600 264.824 C 77.600 264.177,77.780 263.536,78.000 263.400 C 78.220 263.264,78.400 262.713,78.400 262.176 C 78.400 261.639,78.580 261.200,78.800 261.200 C 79.020 261.200,79.200 260.928,79.200 260.595 C 79.200 259.932,80.003 258.344,80.534 257.955 C 80.718 257.821,80.833 257.591,80.790 257.444 C 80.748 257.297,80.837 256.777,80.989 256.289 C 81.140 255.800,81.241 253.690,81.212 251.600 C 81.183 249.510,81.444 243.138,81.792 237.441 C 82.141 231.744,82.432 226.434,82.439 225.641 C 82.478 221.535,82.814 211.551,83.195 203.170 C 83.431 197.983,83.634 189.973,83.646 185.370 C 83.658 180.766,83.787 174.165,83.934 170.700 C 84.197 164.470,84.151 164.009,83.350 164.810 M100.337 165.950 C 100.302 166.748,100.299 167.670,100.329 168.000 C 100.403 168.816,99.338 186.204,98.553 197.000 C 98.201 201.840,97.840 207.510,97.752 209.600 C 97.663 211.690,97.313 216.550,96.974 220.400 C 96.635 224.250,96.278 229.110,96.181 231.200 C 96.085 233.290,95.906 236.035,95.783 237.300 C 95.640 238.781,95.710 239.600,95.980 239.600 C 96.211 239.600,96.400 239.346,96.400 239.035 C 96.400 238.721,96.710 238.522,97.100 238.586 C 97.485 238.649,98.104 238.435,98.475 238.111 C 98.846 237.787,99.341 237.640,99.575 237.784 C 99.855 237.958,100.026 237.188,100.075 235.524 C 100.117 234.136,100.211 232.190,100.286 231.200 C 100.360 230.210,100.432 228.950,100.447 228.400 C 100.462 227.850,100.728 224.430,101.039 220.800 C 101.350 217.170,101.681 212.316,101.776 210.013 C 101.870 207.710,102.223 202.130,102.560 197.613 C 102.897 193.096,103.458 184.450,103.808 178.400 C 104.157 172.350,104.537 166.905,104.653 166.300 C 104.838 165.335,104.740 165.200,103.855 165.200 C 103.301 165.200,102.750 165.043,102.631 164.850 C 101.964 163.771,100.399 164.521,100.337 165.950 M127.867 175.098 C 127.732 177.464,127.430 184.980,127.196 191.800 C 126.963 198.620,126.414 210.770,125.978 218.800 C 124.999 236.811,124.972 235.291,126.283 235.900 C 128.998 237.161,129.568 236.230,129.575 230.513 C 129.578 228.361,129.855 222.280,130.191 217.000 C 130.528 211.720,130.899 203.620,131.016 199.000 C 131.243 190.057,131.928 173.148,132.098 172.305 C 132.163 171.982,131.627 171.753,130.605 171.670 C 129.728 171.599,128.809 171.373,128.562 171.169 C 128.238 170.900,128.046 171.990,127.867 175.098 M54.400 173.800 C 54.400 174.130,54.265 174.364,54.100 174.321 C 53.554 174.177,52.000 174.847,52.000 175.227 C 52.000 175.432,51.670 175.600,51.267 175.600 C 50.626 175.600,50.556 175.867,50.710 177.725 C 50.807 178.894,50.518 184.609,50.067 190.425 C 49.617 196.241,48.959 205.320,48.605 210.600 C 48.251 215.880,47.694 223.530,47.366 227.600 C 46.786 234.823,46.518 238.720,46.238 244.000 C 46.163 245.430,45.900 249.570,45.656 253.200 C 44.015 277.546,42.584 306.580,42.217 323.000 C 42.123 327.180,41.829 338.291,41.563 347.692 L 41.079 364.784 42.946 366.652 C 43.974 367.679,44.872 368.447,44.943 368.360 C 45.013 368.272,45.297 359.650,45.574 349.200 C 45.851 338.750,46.165 327.410,46.272 324.000 C 46.379 320.590,46.449 316.680,46.429 315.312 C 46.408 313.944,46.667 307.914,47.005 301.912 C 47.342 295.910,47.702 288.570,47.804 285.600 C 48.036 278.838,49.038 261.982,49.849 251.200 C 50.188 246.690,50.536 241.380,50.621 239.400 C 50.707 237.420,51.045 232.290,51.373 228.000 C 51.701 223.710,52.247 216.150,52.587 211.200 C 52.927 206.250,53.559 197.250,53.993 191.200 C 54.972 177.536,55.149 173.200,54.728 173.200 C 54.548 173.200,54.400 173.470,54.400 173.800 M148.041 188.144 C 147.778 192.135,147.219 199.990,146.798 205.600 C 146.378 211.210,145.750 219.940,145.405 225.000 C 144.423 239.374,143.985 244.909,143.736 246.100 C 143.564 246.925,143.661 247.200,144.126 247.200 C 144.467 247.200,144.860 247.560,145.000 248.000 C 145.140 248.440,145.452 248.800,145.694 248.800 C 145.935 248.800,146.014 248.919,145.869 249.064 C 145.724 249.209,145.976 249.588,146.428 249.905 C 146.881 250.222,147.340 250.394,147.447 250.287 C 147.681 250.052,148.728 237.905,148.981 232.474 C 149.210 227.574,149.840 218.474,150.801 206.200 C 151.215 200.920,151.661 194.530,151.792 192.000 C 151.924 189.470,152.176 186.349,152.354 185.064 C 152.625 183.097,152.575 182.690,152.038 182.494 C 151.687 182.365,150.968 181.983,150.440 181.645 C 148.559 180.439,148.545 180.479,148.041 188.144 M22.639 211.538 C 22.506 211.753,22.359 212.440,22.313 213.064 C 22.267 213.689,21.908 214.435,21.515 214.723 C 21.122 215.010,20.800 215.508,20.800 215.828 C 20.800 216.365,20.070 217.930,19.600 218.400 C 19.490 218.510,19.336 219.050,19.259 219.600 C 19.181 220.150,18.977 220.690,18.806 220.800 C 18.634 220.910,18.485 222.440,18.473 224.200 C 18.462 225.960,18.176 232.800,17.837 239.400 C 17.499 246.000,17.217 253.920,17.210 257.000 C 17.204 260.080,17.017 267.640,16.795 273.800 C 16.573 279.960,16.392 293.584,16.393 304.075 C 16.394 322.611,16.310 324.639,15.558 324.174 C 15.001 323.830,15.113 324.153,16.400 326.600 C 17.060 327.855,17.600 329.060,17.600 329.279 C 17.600 329.498,17.934 330.154,18.342 330.738 C 18.750 331.322,19.225 332.340,19.399 333.000 L 19.715 334.200 20.018 333.200 C 20.184 332.650,20.339 321.670,20.361 308.800 C 20.383 295.930,20.582 280.180,20.804 273.800 C 21.026 267.420,21.216 259.860,21.227 257.000 C 21.239 254.140,21.517 246.490,21.847 240.000 C 22.996 217.335,23.182 210.658,22.639 211.538 M76.000 267.600 C 76.000 268.040,76.180 268.400,76.400 268.400 C 76.620 268.400,76.800 268.040,76.800 267.600 C 76.800 267.160,76.620 266.800,76.400 266.800 C 76.180 266.800,76.000 267.160,76.000 267.600 M75.057 289.395 C 74.709 290.303,74.406 293.375,74.228 297.808 C 74.139 300.013,73.785 305.413,73.441 309.808 C 71.842 330.229,69.948 356.923,69.921 359.400 C 69.916 359.840,69.662 363.777,69.356 368.149 C 69.050 372.521,68.800 377.974,68.800 380.269 C 68.800 383.143,68.618 384.791,68.216 385.569 C 67.586 386.787,67.814 387.452,68.630 386.775 C 68.999 386.469,69.198 386.564,69.380 387.136 C 69.515 387.564,69.981 388.006,70.414 388.120 C 70.847 388.233,71.100 388.162,70.977 387.963 C 70.854 387.763,70.922 387.600,71.130 387.600 C 71.337 387.600,71.641 388.005,71.806 388.500 C 72.249 389.831,72.712 386.005,72.762 380.600 C 72.784 378.180,73.148 371.700,73.570 366.200 C 73.991 360.700,74.342 355.300,74.349 354.200 C 74.362 352.322,74.790 346.187,76.209 327.600 C 76.536 323.310,76.905 317.820,77.028 315.400 C 77.151 312.980,77.517 308.480,77.842 305.400 C 78.524 298.940,78.542 297.982,77.998 297.438 C 77.779 297.219,77.600 296.637,77.600 296.144 C 77.600 295.651,77.420 295.136,77.200 295.000 C 76.980 294.864,76.800 294.133,76.800 293.376 C 76.800 292.542,76.603 292.000,76.300 292.000 C 75.978 292.000,75.811 291.430,75.831 290.400 C 75.863 288.789,75.480 288.292,75.057 289.395 M144.176 312.553 C 144.032 313.129,143.756 313.600,143.564 313.600 C 143.372 313.600,142.626 314.185,141.907 314.900 L 140.600 316.200 140.533 322.400 C 140.496 325.810,140.271 336.970,140.034 347.200 C 139.796 357.430,139.602 372.705,139.601 381.145 L 139.600 396.491 140.700 396.260 C 141.305 396.133,142.387 395.912,143.105 395.769 C 143.823 395.625,144.511 395.344,144.635 395.144 C 144.758 394.944,144.621 394.830,144.330 394.890 C 143.351 395.093,143.496 362.069,144.651 322.000 C 144.961 311.247,144.884 309.730,144.176 312.553 M90.651 327.300 C 90.498 333.515,90.201 342.560,89.992 347.400 C 89.211 365.476,89.043 396.546,89.728 396.283 C 90.066 396.153,90.540 396.287,90.784 396.580 C 91.027 396.873,91.748 397.190,92.385 397.283 L 93.545 397.453 93.574 377.027 C 93.589 365.792,93.692 354.890,93.803 352.800 C 93.913 350.710,94.191 343.600,94.421 337.000 C 94.909 322.998,95.083 319.970,95.459 318.990 C 95.685 318.402,95.577 318.313,94.867 318.498 C 94.344 318.635,94.000 318.540,94.000 318.259 C 94.000 317.433,92.353 316.632,91.953 317.263 C 91.707 317.651,91.611 317.550,91.606 316.900 C 91.603 316.405,91.449 316.000,91.264 316.000 C 91.080 316.000,90.804 321.085,90.651 327.300 M119.029 327.700 C 118.898 329.295,118.723 332.310,118.641 334.400 C 118.559 336.490,118.202 342.610,117.847 348.000 C 116.752 364.651,115.932 380.983,115.705 390.700 L 115.487 400.000 117.543 400.000 L 119.600 400.000 119.606 394.100 C 119.610 390.855,119.882 383.610,120.210 378.000 C 120.539 372.390,120.981 363.819,121.193 358.954 C 121.405 354.089,121.841 346.619,122.162 342.354 C 122.484 338.089,122.847 332.395,122.970 329.700 L 123.193 324.800 121.231 324.800 L 119.268 324.800 119.029 327.700 " stroke="none" fill="#0c9892" fill-rule="evenodd"></path><path id="path2" d="M217.600 3.861 C 213.265 4.271,206.415 6.033,207.443 6.474 C 207.945 6.689,207.775 6.723,206.941 6.576 C 206.033 6.416,204.920 6.706,202.941 7.619 C 201.434 8.314,199.570 9.158,198.800 9.495 C 197.527 10.051,197.473 10.139,198.200 10.460 C 198.846 10.744,198.793 10.772,197.925 10.605 C 196.836 10.395,195.963 10.994,196.895 11.311 C 197.173 11.406,197.028 11.424,196.572 11.352 C 196.090 11.276,195.171 11.711,194.372 12.394 C 193.618 13.040,193.236 13.575,193.524 13.584 C 193.812 13.593,193.924 13.799,193.774 14.043 C 193.582 14.352,193.401 14.326,193.171 13.953 C 192.793 13.341,190.678 15.035,190.919 15.757 C 191.266 16.797,208.553 19.360,219.661 20.017 C 228.531 20.542,241.193 20.139,251.800 18.995 C 254.660 18.686,258.260 18.318,259.800 18.177 C 263.601 17.828,263.847 17.563,262.564 15.205 C 260.275 11.000,253.743 6.104,251.052 6.578 C 250.148 6.737,250.022 6.703,250.600 6.458 L 251.400 6.118 250.600 5.880 C 244.780 4.149,226.420 3.026,217.600 3.861 M233.200 4.421 C 233.530 4.453,233.350 4.624,232.800 4.800 C 230.675 5.480,218.386 5.149,219.532 4.443 C 219.857 4.242,231.188 4.224,233.200 4.421 M218.767 5.857 C 218.858 5.935,218.284 6.000,217.490 6.000 C 216.697 6.000,215.943 5.831,215.815 5.624 C 215.603 5.281,218.350 5.498,218.767 5.857 M241.200 5.600 C 241.200 5.826,240.198 5.979,238.900 5.953 C 237.007 5.914,236.812 5.851,237.800 5.600 C 239.583 5.146,241.200 5.146,241.200 5.600 M238.897 6.595 C 245.176 7.534,249.242 9.746,251.641 13.529 C 253.141 15.895,252.892 16.242,249.479 16.537 C 247.895 16.673,244.080 17.055,241.000 17.384 C 233.695 18.166,222.278 18.168,216.183 17.389 C 213.553 17.052,210.680 16.685,209.800 16.574 C 207.258 16.251,202.231 15.132,201.880 14.812 C 201.704 14.651,202.217 13.863,203.020 13.060 C 203.823 12.257,204.271 11.600,204.016 11.600 C 203.761 11.600,203.676 11.401,203.826 11.157 C 204.022 10.841,204.185 10.853,204.400 11.199 C 204.625 11.565,204.965 11.510,205.774 10.981 C 206.601 10.438,206.728 10.190,206.324 9.901 C 205.941 9.626,205.991 9.586,206.507 9.752 C 207.585 10.100,210.277 8.726,209.325 8.315 C 208.862 8.115,209.039 8.079,209.813 8.214 C 210.481 8.330,211.831 8.134,212.813 7.777 C 218.280 5.791,229.977 5.262,238.897 6.595 M259.049 11.428 C 260.055 12.434,260.804 13.329,260.714 13.419 C 260.625 13.508,259.669 12.686,258.591 11.591 C 257.512 10.496,256.763 9.600,256.926 9.600 C 257.088 9.600,258.044 10.423,259.049 11.428 M177.298 15.318 C 176.362 16.243,175.597 17.225,175.598 17.500 C 175.599 17.775,175.454 18.000,175.275 18.000 C 175.096 18.000,174.702 18.630,174.400 19.400 C 174.098 20.170,173.744 20.800,173.613 20.800 C 173.482 20.800,173.334 21.295,173.284 21.900 C 173.234 22.505,173.015 23.060,172.797 23.133 C 172.578 23.207,172.400 23.792,172.400 24.433 C 172.400 25.075,172.220 25.600,172.000 25.600 C 171.780 25.600,171.600 26.140,171.600 26.800 C 171.600 27.460,171.420 28.000,171.200 28.000 C 170.980 28.000,170.800 28.630,170.800 29.400 C 170.800 30.170,170.620 30.800,170.400 30.800 C 170.180 30.800,170.000 31.700,170.000 32.800 C 170.000 33.900,169.820 34.800,169.600 34.800 C 169.380 34.800,169.200 35.599,169.200 36.576 C 169.200 37.553,169.020 38.464,168.800 38.600 C 168.580 38.736,168.400 40.277,168.400 42.024 C 168.400 43.875,168.233 45.200,168.000 45.200 C 167.775 45.200,167.600 46.325,167.600 47.776 C 167.600 49.193,167.420 50.464,167.200 50.600 C 166.960 50.748,166.800 53.412,166.800 57.247 C 166.800 61.412,166.660 63.561,166.400 63.400 C 166.138 63.238,166.000 66.507,166.000 72.910 C 166.000 78.276,165.895 82.771,165.767 82.899 C 165.444 83.223,165.532 107.966,165.858 108.495 C 166.023 108.761,165.933 108.806,165.622 108.614 C 165.230 108.371,165.218 108.485,165.565 109.134 C 166.547 110.969,165.776 181.519,164.763 182.580 C 164.563 182.789,164.400 183.527,164.400 184.220 C 164.400 186.290,163.613 188.095,162.852 187.773 C 162.494 187.621,161.795 187.409,161.300 187.302 C 160.805 187.195,160.400 186.948,160.400 186.753 C 160.400 186.559,160.040 186.400,159.600 186.400 C 159.160 186.400,158.800 186.220,158.800 186.000 C 158.800 185.780,158.440 185.600,158.000 185.600 C 157.560 185.600,157.200 185.420,157.200 185.200 C 157.200 184.980,156.840 184.800,156.400 184.800 C 155.960 184.800,155.599 184.665,155.597 184.500 C 155.593 184.155,153.669 183.200,152.977 183.200 C 152.469 183.200,152.116 185.854,151.778 192.200 C 151.661 194.400,151.225 200.610,150.808 206.000 C 149.812 218.897,149.204 227.713,148.981 232.474 C 148.712 238.244,147.699 249.699,147.387 250.500 C 147.223 250.922,147.299 251.200,147.581 251.200 C 147.837 251.200,147.945 251.365,147.820 251.568 C 147.695 251.770,147.819 252.182,148.096 252.483 C 148.568 252.996,148.844 253.439,150.100 255.700 C 150.375 256.195,150.690 256.690,150.800 256.800 C 151.340 257.340,152.000 258.877,152.000 259.595 C 152.000 260.038,152.180 260.400,152.400 260.400 C 152.620 260.400,152.800 260.760,152.800 261.200 C 152.800 261.640,152.980 262.000,153.200 262.000 C 153.420 262.000,153.600 262.619,153.600 263.376 C 153.600 264.133,153.780 264.864,154.000 265.000 C 154.220 265.136,154.400 265.777,154.400 266.424 C 154.400 267.071,154.562 267.600,154.760 267.600 C 155.582 267.600,156.425 283.206,155.653 284.137 C 155.430 284.405,155.208 285.743,155.159 287.112 C 155.109 288.480,154.918 289.600,154.734 289.600 C 154.550 289.600,154.400 290.320,154.400 291.200 C 154.400 292.080,154.220 292.800,154.000 292.800 C 153.780 292.800,153.600 293.329,153.600 293.976 C 153.600 294.623,153.420 295.264,153.200 295.400 C 152.980 295.536,152.800 296.177,152.800 296.824 C 152.800 297.471,152.620 298.000,152.400 298.000 C 152.180 298.000,152.000 298.349,152.000 298.776 C 152.000 299.203,151.820 299.664,151.600 299.800 C 151.380 299.936,151.200 300.487,151.200 301.024 C 151.200 301.561,151.020 302.000,150.800 302.000 C 150.580 302.000,150.400 302.360,150.400 302.800 C 150.400 303.240,150.220 303.600,150.000 303.600 C 149.780 303.600,149.600 303.878,149.600 304.217 C 149.600 304.556,149.240 305.220,148.800 305.692 C 148.360 306.164,148.000 306.787,148.000 307.075 C 148.000 307.364,147.820 307.600,147.600 307.600 C 147.380 307.600,147.200 307.829,147.200 308.109 C 147.200 308.389,146.671 309.260,146.024 310.044 C 145.159 311.094,144.851 311.884,144.859 313.035 C 144.865 313.896,144.773 317.930,144.654 322.000 C 144.042 342.940,143.566 372.741,143.676 383.200 L 143.800 395.000 145.000 394.862 C 145.660 394.786,146.260 394.561,146.333 394.362 C 146.407 394.163,146.812 394.000,147.233 394.000 C 147.655 394.000,148.001 393.865,148.003 393.700 C 148.007 393.341,149.944 392.400,150.680 392.400 C 150.966 392.400,151.200 392.220,151.200 392.000 C 151.200 391.780,151.560 391.600,152.000 391.600 C 152.440 391.600,152.800 391.456,152.800 391.280 C 152.800 391.104,153.610 390.566,154.600 390.085 C 155.590 389.604,156.400 388.998,156.400 388.739 C 156.400 388.479,156.515 388.381,156.655 388.522 C 156.795 388.662,157.438 388.400,158.083 387.941 L 159.257 387.105 160.329 388.110 C 160.918 388.663,162.390 389.712,163.600 390.442 C 164.810 391.171,165.860 391.911,165.933 392.084 C 166.007 392.258,166.494 392.400,167.015 392.400 C 168.419 392.400,168.518 391.143,168.040 379.373 C 166.686 346.046,166.447 280.944,167.577 253.600 C 167.800 248.210,168.077 240.290,168.192 236.000 C 168.659 218.630,169.138 207.783,170.250 189.400 C 170.596 183.680,170.888 178.460,170.898 177.800 C 170.909 177.140,171.247 172.190,171.648 166.800 C 172.049 161.410,172.476 155.020,172.596 152.600 C 172.717 150.180,172.987 146.400,173.198 144.200 C 173.408 142.000,173.604 139.300,173.635 138.200 C 173.665 137.100,174.015 132.240,174.413 127.400 C 174.810 122.560,175.147 117.669,175.160 116.532 C 175.173 115.394,175.529 110.084,175.949 104.732 C 176.370 99.379,176.736 93.920,176.761 92.600 C 176.787 91.280,176.990 87.950,177.213 85.200 C 177.437 82.450,177.792 76.150,178.003 71.200 C 178.214 66.250,178.571 59.370,178.796 55.911 C 179.021 52.452,179.220 47.952,179.238 45.911 C 179.257 43.870,179.514 36.980,179.810 30.600 C 180.381 18.303,180.401 18.467,178.337 18.032 C 176.760 17.700,176.724 16.912,178.217 15.419 C 178.758 14.879,179.200 14.248,179.200 14.018 C 179.200 13.438,179.202 13.436,177.298 15.318 M262.537 16.083 C 262.862 17.325,262.615 17.389,262.074 16.202 C 261.823 15.651,261.772 15.200,261.962 15.200 C 262.152 15.200,262.411 15.597,262.537 16.083 M210.000 18.000 C 210.000 18.220,209.415 18.379,208.700 18.353 L 207.400 18.305 208.600 18.000 C 209.260 17.832,209.845 17.673,209.900 17.647 C 209.955 17.621,210.000 17.780,210.000 18.000 M247.100 17.876 C 246.715 17.976,246.085 17.976,245.700 17.876 C 245.315 17.775,245.630 17.693,246.400 17.693 C 247.170 17.693,247.485 17.775,247.100 17.876 M251.300 18.282 C 250.805 18.378,249.995 18.378,249.500 18.282 C 249.005 18.187,249.410 18.109,250.400 18.109 C 251.390 18.109,251.795 18.187,251.300 18.282 M223.200 18.800 C 222.870 19.013,220.530 19.167,218.000 19.141 C 212.506 19.086,214.133 18.531,220.000 18.459 C 222.584 18.427,223.608 18.536,223.200 18.800 M230.112 18.692 C 229.184 18.776,227.564 18.777,226.512 18.695 C 225.460 18.612,226.220 18.543,228.200 18.542 C 230.180 18.541,231.040 18.608,230.112 18.692 M243.000 18.782 C 244.519 19.018,243.652 19.104,239.400 19.140 C 236.320 19.166,233.530 19.013,233.200 18.800 C 232.469 18.327,239.993 18.313,243.000 18.782 M184.244 22.100 C 183.936 25.594,183.570 34.741,183.575 38.800 C 183.579 42.236,182.533 63.091,181.397 82.200 C 181.057 87.920,180.693 94.490,180.587 96.800 C 180.482 99.110,180.139 104.060,179.826 107.800 C 179.514 111.540,179.253 115.320,179.248 116.200 C 179.239 117.711,178.793 123.858,177.371 142.056 C 177.033 146.377,176.684 151.417,176.596 153.256 C 176.508 155.095,176.156 160.560,175.814 165.400 C 174.757 180.376,173.638 198.864,173.611 201.800 C 173.596 203.340,173.406 207.320,173.188 210.645 C 172.971 213.970,172.709 219.640,172.608 223.245 C 172.268 235.294,172.022 242.506,171.512 255.400 C 170.833 272.549,170.832 348.881,171.511 365.800 C 172.287 385.154,172.531 392.106,172.476 393.341 C 172.409 394.857,173.230 395.600,174.971 395.600 C 175.757 395.600,176.400 395.780,176.400 396.000 C 176.400 396.220,177.199 396.400,178.176 396.400 C 179.153 396.400,180.064 396.580,180.200 396.800 C 180.336 397.020,181.416 397.200,182.600 397.200 C 183.784 397.200,184.864 397.380,185.000 397.600 C 185.361 398.184,187.989 398.098,188.058 397.500 C 188.090 397.225,188.079 385.030,188.033 370.400 C 187.987 355.770,188.141 336.240,188.376 327.000 C 188.611 317.760,188.897 305.250,189.013 299.200 C 189.128 293.150,189.406 284.240,189.630 279.400 C 190.341 264.049,190.475 260.640,190.434 259.000 C 190.411 258.120,190.658 253.530,190.983 248.800 C 191.307 244.070,191.590 239.120,191.610 237.800 C 191.646 235.586,192.254 226.343,193.809 204.400 C 194.144 199.670,194.499 194.360,194.597 192.600 C 194.695 190.840,195.047 185.980,195.379 181.800 C 196.692 165.279,198.476 138.336,198.478 135.000 C 198.479 134.120,198.737 129.620,199.052 125.000 C 199.367 120.380,199.798 111.920,200.010 106.200 C 200.221 100.480,200.576 92.650,200.797 88.800 C 201.019 84.950,201.382 74.600,201.604 65.800 C 201.825 57.000,202.173 43.770,202.377 36.400 C 202.660 26.177,202.636 22.897,202.274 22.567 C 201.860 22.188,196.772 21.269,191.200 20.567 C 190.210 20.443,188.770 20.175,188.000 19.973 C 184.812 19.134,184.489 19.317,184.244 22.100 M266.000 21.260 C 262.370 21.685,258.410 22.161,257.200 22.317 L 255.000 22.600 254.727 36.400 C 253.805 82.924,253.658 87.524,251.941 123.800 C 251.681 129.300,251.500 134.160,251.538 134.600 C 251.633 135.680,249.301 171.751,247.829 192.000 C 247.170 201.057,247.130 201.648,247.126 202.400 C 247.125 202.730,246.877 205.880,246.576 209.400 C 246.275 212.920,246.004 216.790,245.975 218.000 C 245.946 219.210,245.589 224.700,245.181 230.200 C 244.043 245.571,243.135 260.416,242.954 266.600 C 242.863 269.680,242.609 274.990,242.388 278.400 C 242.167 281.810,241.809 291.080,241.592 299.000 C 241.375 306.920,241.020 318.530,240.802 324.800 C 240.296 339.374,239.785 394.689,240.144 396.117 L 240.415 397.200 250.952 397.200 L 261.490 397.200 261.766 390.100 C 261.918 386.195,262.201 376.700,262.395 369.000 C 262.720 356.074,263.254 344.146,264.470 322.600 C 264.731 317.980,264.928 313.840,264.908 313.400 C 264.888 312.960,265.212 308.010,265.629 302.400 C 266.045 296.790,266.466 290.461,266.564 288.336 C 266.663 286.211,267.025 280.901,267.371 276.536 C 267.716 272.171,268.249 265.090,268.556 260.800 C 268.862 256.510,269.151 252.550,269.198 252.000 C 269.245 251.450,269.290 250.550,269.299 250.000 C 269.307 249.450,269.624 244.860,270.003 239.800 C 270.382 234.740,270.697 230.060,270.704 229.400 C 270.711 228.740,271.009 223.430,271.366 217.600 C 272.423 200.358,273.560 179.150,273.543 177.000 C 273.534 175.900,273.810 168.070,274.157 159.600 C 275.593 124.500,276.405 63.069,275.808 34.700 L 275.507 20.400 274.053 20.443 C 273.254 20.467,269.630 20.834,266.000 21.260 M206.651 28.046 C 206.521 30.991,206.226 41.680,205.995 51.800 C 205.765 61.920,205.301 76.410,204.963 84.000 C 204.626 91.590,204.190 102.030,203.996 107.200 C 203.801 112.370,203.468 119.390,203.256 122.800 C 203.044 126.210,202.870 129.360,202.869 129.800 C 202.869 130.240,202.843 130.960,202.811 131.400 C 202.780 131.840,202.497 136.520,202.181 141.800 C 201.529 152.737,200.273 170.831,199.349 182.600 C 199.004 187.000,198.655 192.040,198.575 193.800 C 198.494 195.560,198.239 199.430,198.009 202.400 C 197.778 205.370,197.520 209.240,197.435 211.000 C 197.351 212.760,196.992 218.250,196.638 223.200 C 195.697 236.345,194.438 258.103,194.404 261.800 C 194.388 263.560,194.200 267.880,193.985 271.400 C 193.770 274.920,193.413 285.270,193.190 294.400 C 192.967 303.530,192.613 318.110,192.402 326.800 C 191.956 345.160,191.883 378.774,192.263 390.136 L 192.527 398.002 201.251 397.983 C 206.346 397.972,210.073 397.806,210.211 397.582 C 210.341 397.372,211.247 397.200,212.224 397.200 L 214.000 397.200 214.003 390.300 C 214.005 386.505,214.277 378.303,214.607 372.073 C 214.938 365.843,215.213 360.263,215.219 359.673 C 215.257 355.785,215.657 347.823,216.167 340.800 C 216.494 336.290,216.758 331.790,216.754 330.800 C 216.744 328.886,217.554 316.903,218.781 300.800 C 219.191 295.410,219.547 290.280,219.570 289.400 C 219.594 288.520,219.878 284.740,220.201 281.000 C 220.525 277.260,220.808 273.390,220.832 272.400 C 220.856 271.410,221.129 267.360,221.438 263.400 C 221.748 259.440,222.072 254.400,222.157 252.200 C 222.242 250.000,222.595 243.970,222.943 238.800 C 223.725 227.158,224.749 207.727,224.988 200.000 C 225.086 196.810,225.436 188.350,225.765 181.200 C 226.094 174.050,226.465 162.800,226.591 156.200 C 226.716 149.600,226.989 137.270,227.197 128.800 C 227.929 98.977,227.419 24.850,226.476 23.931 C 226.324 23.784,223.230 23.565,219.600 23.445 C 215.970 23.326,211.625 23.107,209.944 22.959 L 206.888 22.691 206.651 28.046 M245.200 23.216 C 243.330 23.377,239.476 23.522,236.635 23.539 C 233.795 23.556,231.313 23.727,231.120 23.920 C 230.919 24.121,230.969 33.148,231.236 45.035 C 232.217 88.764,230.936 167.695,228.551 210.441 C 228.213 216.514,227.938 222.544,227.941 223.841 C 227.945 225.139,227.617 231.060,227.214 237.000 C 226.810 242.940,226.464 248.520,226.444 249.400 C 226.425 250.280,226.046 255.950,225.603 262.000 C 225.159 268.050,224.519 276.960,224.180 281.800 C 223.841 286.640,223.230 295.010,222.823 300.400 C 222.416 305.790,222.095 310.560,222.110 311.000 C 222.125 311.440,221.839 316.030,221.474 321.200 C 220.654 332.842,219.693 349.234,219.411 356.400 C 219.294 359.370,218.931 366.750,218.604 372.800 C 218.277 378.850,218.007 386.815,218.005 390.500 L 218.000 397.200 227.000 397.200 L 236.000 397.200 236.012 377.900 C 236.028 350.504,237.016 308.267,238.251 282.125 C 238.596 274.824,238.876 268.164,238.873 267.325 C 238.871 266.486,239.122 261.750,239.431 256.800 C 239.739 251.850,240.074 245.860,240.175 243.490 C 240.358 239.169,241.050 229.323,242.248 214.000 C 242.601 209.490,242.949 204.450,243.021 202.800 C 243.094 201.150,243.435 196.020,243.780 191.400 C 245.484 168.577,245.958 161.528,245.993 158.492 C 246.014 156.672,246.105 154.962,246.195 154.692 C 246.376 154.144,247.118 142.098,247.370 135.600 C 247.460 133.290,247.732 127.440,247.974 122.600 C 249.503 92.026,249.897 79.611,250.648 38.300 L 250.930 22.800 249.765 22.862 C 249.124 22.896,247.070 23.055,245.200 23.216 M213.900 23.887 C 213.295 23.978,212.305 23.978,211.700 23.887 C 211.095 23.795,211.590 23.720,212.800 23.720 C 214.010 23.720,214.505 23.795,213.900 23.887 M247.300 23.889 C 246.585 23.978,245.415 23.978,244.700 23.889 C 243.985 23.801,244.570 23.728,246.000 23.728 C 247.430 23.728,248.015 23.801,247.300 23.889 M226.316 38.700 C 226.270 46.565,226.182 51.290,226.119 49.200 C 225.840 39.815,225.828 24.399,226.100 24.400 C 226.265 24.400,226.362 30.835,226.316 38.700 M280.276 25.900 C 280.098 26.175,280.064 26.580,280.200 26.800 C 280.336 27.020,280.302 27.200,280.124 27.200 C 279.946 27.200,279.868 39.305,279.950 54.100 C 280.078 77.017,279.848 97.722,279.007 139.121 C 278.851 146.794,278.153 164.358,276.983 190.000 C 276.356 203.764,275.267 222.277,274.172 237.800 C 273.831 242.640,273.490 247.950,273.414 249.600 C 273.338 251.250,272.997 256.200,272.656 260.600 C 271.638 273.731,270.766 285.720,270.736 287.000 C 270.721 287.660,270.376 292.520,269.970 297.800 C 269.564 303.080,269.243 307.850,269.256 308.400 C 269.268 308.950,269.193 310.750,269.088 312.400 C 268.025 329.136,266.747 355.090,266.566 363.600 C 266.475 367.890,266.210 376.845,265.977 383.500 C 265.744 390.155,265.664 395.780,265.800 396.000 C 266.121 396.519,267.200 396.519,267.200 396.000 C 267.200 395.780,267.770 395.600,268.467 395.600 C 269.163 395.600,269.615 395.482,269.470 395.337 C 269.326 395.192,270.151 394.612,271.304 394.048 C 273.602 392.923,276.800 390.181,276.800 389.335 C 276.800 389.041,276.935 388.799,277.100 388.797 C 277.451 388.793,278.400 386.863,278.400 386.154 C 278.400 385.886,278.568 385.607,278.773 385.533 C 278.978 385.460,279.192 383.746,279.249 381.723 C 279.305 379.701,279.498 378.137,279.676 378.247 C 279.854 378.357,280.000 375.287,280.000 371.424 C 280.000 367.487,280.159 364.400,280.363 364.400 C 280.562 364.400,280.749 361.936,280.777 358.925 C 280.804 355.913,280.993 353.250,281.195 353.007 C 281.397 352.763,281.571 348.792,281.582 344.182 C 281.593 339.505,281.764 335.746,281.967 335.678 C 282.168 335.611,282.354 332.572,282.381 328.925 C 282.407 325.278,282.595 321.984,282.798 321.605 C 283.000 321.226,283.175 315.994,283.186 309.979 C 283.198 303.470,283.361 298.947,283.589 298.807 C 284.039 298.529,284.315 287.140,284.610 256.809 C 284.739 243.506,284.973 234.867,285.211 234.629 C 285.753 234.087,285.743 158.400,285.200 158.400 C 284.940 158.400,284.800 152.400,284.800 141.200 C 284.800 128.749,284.676 124.000,284.351 124.000 C 284.030 124.000,284.037 123.837,284.375 123.430 C 284.712 123.025,284.782 121.439,284.617 117.930 C 284.095 106.744,283.965 92.675,284.380 92.260 C 284.611 92.029,284.800 91.516,284.800 91.120 C 284.800 90.724,284.935 90.399,285.100 90.399 C 285.265 90.398,285.760 89.859,286.200 89.200 C 286.640 88.541,287.279 88.002,287.620 88.001 C 287.961 88.001,288.411 87.837,288.620 87.637 C 289.239 87.045,292.800 85.153,292.800 85.416 C 292.800 85.549,293.085 85.373,293.432 85.025 C 293.780 84.677,294.230 84.495,294.432 84.620 C 294.635 84.745,294.801 84.702,294.803 84.524 C 294.807 84.146,296.720 83.200,297.480 83.200 C 297.766 83.200,298.000 83.020,298.000 82.800 C 298.000 82.580,298.360 82.400,298.800 82.400 C 299.240 82.400,299.601 82.265,299.601 82.100 C 299.602 81.935,300.592 81.350,301.800 80.800 C 303.008 80.250,303.998 79.665,303.999 79.500 C 303.999 79.335,304.270 79.200,304.600 79.200 C 304.930 79.200,305.200 79.020,305.200 78.800 C 305.200 78.580,305.470 78.400,305.800 78.400 C 306.130 78.400,306.400 78.220,306.400 78.000 C 306.400 77.780,306.670 77.600,307.000 77.600 C 307.330 77.600,307.600 77.420,307.600 77.200 C 307.600 76.980,307.870 76.800,308.200 76.800 C 308.530 76.800,308.800 76.620,308.800 76.400 C 308.800 76.180,309.160 76.000,309.600 76.000 C 310.040 76.000,310.400 75.820,310.400 75.600 C 310.400 75.380,310.747 75.200,311.171 75.200 C 311.596 75.200,312.206 74.937,312.528 74.615 C 312.849 74.293,314.607 73.300,316.433 72.408 C 318.259 71.515,320.034 70.542,320.377 70.245 C 320.720 69.948,321.188 69.774,321.418 69.858 C 321.648 69.943,322.196 69.677,322.636 69.267 C 323.076 68.857,323.698 68.428,324.018 68.313 C 324.804 68.032,323.488 67.488,319.200 66.319 C 315.299 65.255,315.436 65.574,316.755 60.636 C 317.690 57.134,317.799 56.000,317.200 56.000 C 316.980 56.000,316.800 56.180,316.800 56.400 C 316.800 56.620,316.517 56.800,316.171 56.800 C 315.426 56.800,314.331 57.797,314.686 58.152 C 314.822 58.289,314.577 58.400,314.142 58.400 C 313.707 58.400,312.964 58.760,312.492 59.200 C 312.020 59.640,311.534 60.000,311.413 60.000 C 311.291 60.000,310.339 60.596,309.296 61.325 C 308.253 62.054,306.590 63.089,305.600 63.625 C 304.610 64.161,303.710 64.690,303.600 64.800 C 302.861 65.539,300.728 66.800,300.216 66.800 C 299.877 66.800,299.600 66.980,299.600 67.200 C 299.600 67.420,299.240 67.600,298.800 67.600 C 298.360 67.600,298.000 67.780,298.000 68.000 C 298.000 68.220,297.752 68.400,297.449 68.400 C 297.146 68.400,296.676 68.668,296.404 68.996 C 296.132 69.323,295.762 69.500,295.582 69.389 C 295.402 69.278,295.142 69.370,295.004 69.593 C 294.866 69.817,294.403 70.000,293.976 70.000 C 293.549 70.000,293.200 70.180,293.200 70.400 C 293.200 70.620,292.750 70.800,292.200 70.800 C 291.650 70.800,291.200 70.980,291.200 71.200 C 291.200 71.420,290.495 71.600,289.633 71.600 C 288.755 71.600,287.978 71.820,287.864 72.100 C 287.732 72.424,287.545 72.459,287.330 72.200 C 287.149 71.980,286.566 71.739,286.035 71.664 C 284.904 71.504,284.000 70.704,284.000 69.862 C 284.000 69.535,283.810 69.203,283.578 69.126 C 283.346 69.049,283.148 68.044,283.139 66.893 C 283.131 65.742,282.946 64.800,282.730 64.800 C 282.483 64.800,282.437 63.646,282.605 61.700 C 283.229 54.491,282.774 34.249,281.969 33.420 C 281.766 33.211,281.600 32.122,281.600 31.000 C 281.600 29.878,281.433 28.789,281.229 28.580 C 281.024 28.371,280.799 27.570,280.729 26.800 C 280.647 25.909,280.482 25.582,280.276 25.900 M281.089 44.900 C 281.001 45.615,280.928 45.030,280.928 43.600 C 280.928 42.170,281.001 41.585,281.089 42.300 C 281.178 43.015,281.178 44.185,281.089 44.900 M281.094 55.900 C 281.012 56.945,280.944 56.090,280.944 54.000 C 280.944 51.910,281.012 51.055,281.094 52.100 C 281.176 53.145,281.176 54.855,281.094 55.900 M281.093 64.500 C 281.009 65.435,280.940 64.670,280.940 62.800 C 280.940 60.930,281.009 60.165,281.093 61.100 C 281.177 62.035,281.177 63.565,281.093 64.500 M177.092 75.491 C 177.005 76.321,176.933 75.740,176.931 74.200 C 176.929 72.660,177.000 71.981,177.089 72.691 C 177.177 73.401,177.179 74.661,177.092 75.491 M176.290 91.293 C 176.201 92.012,176.126 91.520,176.124 90.200 C 176.122 88.880,176.195 88.292,176.286 88.893 C 176.377 89.494,176.379 90.574,176.290 91.293 M175.487 101.100 C 175.395 101.705,175.320 101.210,175.320 100.000 C 175.320 98.790,175.395 98.295,175.487 98.900 C 175.578 99.505,175.578 100.495,175.487 101.100 M181.082 106.100 C 180.987 106.595,180.909 106.190,180.909 105.200 C 180.909 104.210,180.987 103.805,181.082 104.300 C 181.178 104.795,181.178 105.605,181.082 106.100 M174.687 114.695 C 174.595 115.303,174.517 114.900,174.514 113.800 C 174.511 112.700,174.587 112.203,174.682 112.695 C 174.777 113.186,174.779 114.086,174.687 114.695 M180.282 115.300 C 180.187 115.795,180.109 115.390,180.109 114.400 C 180.109 113.410,180.187 113.005,180.282 113.500 C 180.378 113.995,180.378 114.805,180.282 115.300 M280.298 127.300 C 280.223 129.115,280.163 127.630,280.163 124.000 C 280.163 120.370,280.223 118.885,280.298 120.700 C 280.372 122.515,280.372 125.485,280.298 127.300 M226.300 143.273 C 226.235 147.743,226.182 144.200,226.182 135.400 C 226.182 126.600,226.235 122.943,226.299 127.273 C 226.364 131.604,226.364 138.804,226.300 143.273 M173.887 123.895 C 173.795 124.503,173.717 124.100,173.714 123.000 C 173.711 121.900,173.787 121.403,173.882 121.895 C 173.977 122.386,173.979 123.286,173.887 123.895 M179.482 128.500 C 179.387 128.995,179.309 128.590,179.309 127.600 C 179.309 126.610,179.387 126.205,179.482 126.700 C 179.578 127.195,179.578 128.005,179.482 128.500 M173.087 136.295 C 172.995 136.903,172.917 136.500,172.914 135.400 C 172.911 134.300,172.987 133.803,173.082 134.295 C 173.177 134.786,173.179 135.686,173.087 136.295 M273.896 149.300 C 273.818 150.675,273.754 149.550,273.754 146.800 C 273.754 144.050,273.818 142.925,273.896 144.300 C 273.974 145.675,273.974 147.925,273.896 149.300 M172.287 145.095 C 172.195 145.703,172.117 145.300,172.114 144.200 C 172.111 143.100,172.187 142.603,172.282 143.095 C 172.377 143.586,172.379 144.486,172.287 145.095 M177.882 150.100 C 177.787 150.595,177.709 150.190,177.709 149.200 C 177.709 148.210,177.787 147.805,177.882 148.300 C 177.978 148.795,177.978 149.605,177.882 150.100 M171.482 158.500 C 171.387 158.995,171.309 158.590,171.309 157.600 C 171.309 156.610,171.387 156.205,171.482 156.700 C 171.578 157.195,171.578 158.005,171.482 158.500 M177.087 159.095 C 176.995 159.703,176.917 159.300,176.914 158.200 C 176.911 157.100,176.987 156.603,177.082 157.095 C 177.177 157.586,177.179 158.486,177.087 159.095 M225.496 170.500 C 225.418 171.875,225.354 170.750,225.354 168.000 C 225.354 165.250,225.418 164.125,225.496 165.500 C 225.574 166.875,225.574 169.125,225.496 170.500 M84.232 164.749 C 84.113 164.940,83.921 171.015,83.805 178.249 C 83.688 185.482,83.401 196.530,83.166 202.800 C 82.752 213.853,82.478 222.513,82.437 225.800 C 82.426 226.680,82.143 231.900,81.809 237.399 C 81.252 246.538,81.062 256.282,81.482 254.100 C 81.578 253.605,81.817 253.200,82.015 253.200 C 82.213 253.200,82.256 253.515,82.110 253.900 C 81.862 254.555,81.888 254.557,82.522 253.929 C 82.895 253.559,83.200 253.064,83.200 252.829 C 83.200 252.593,83.380 252.400,83.600 252.400 C 83.820 252.400,84.000 252.130,84.000 251.800 C 84.000 251.470,84.180 251.200,84.400 251.200 C 84.620 251.200,84.800 250.930,84.800 250.600 C 84.800 250.270,84.980 250.000,85.200 250.000 C 85.420 250.000,85.600 249.804,85.600 249.563 C 85.600 249.162,87.174 247.416,91.450 243.075 C 92.358 242.154,93.647 241.103,94.314 240.739 C 95.661 240.006,95.801 239.291,96.179 231.200 C 96.277 229.110,96.635 224.250,96.974 220.400 C 97.313 216.550,97.663 211.690,97.752 209.600 C 97.840 207.510,98.201 201.840,98.553 197.000 C 99.178 188.399,100.235 170.681,100.372 166.500 L 100.440 164.400 92.444 164.400 C 88.046 164.400,84.350 164.557,84.232 164.749 M77.383 165.627 C 77.257 165.832,76.364 166.000,75.400 166.000 C 74.436 166.000,73.536 166.180,73.400 166.400 C 73.264 166.620,72.433 166.800,71.553 166.800 C 70.588 166.800,70.051 166.959,70.200 167.200 C 70.347 167.438,69.871 167.600,69.024 167.600 C 68.241 167.600,67.600 167.780,67.600 168.000 C 67.600 168.220,67.161 168.400,66.624 168.400 C 66.087 168.400,65.536 168.580,65.400 168.800 C 65.264 169.020,64.801 169.200,64.371 169.200 C 63.941 169.200,63.232 169.380,62.795 169.600 C 62.358 169.820,61.642 170.180,61.205 170.400 C 60.768 170.620,60.138 170.800,59.805 170.800 C 59.472 170.800,59.200 170.980,59.200 171.200 C 59.200 171.420,58.840 171.600,58.400 171.600 C 57.960 171.600,57.600 171.780,57.600 172.000 C 57.600 172.220,57.317 172.400,56.971 172.400 C 55.566 172.400,55.003 173.639,54.895 176.971 C 54.837 178.747,54.433 185.150,53.997 191.200 C 53.561 197.250,52.927 206.250,52.587 211.200 C 52.247 216.150,51.701 223.710,51.373 228.000 C 51.045 232.290,50.707 237.420,50.621 239.400 C 50.536 241.380,50.188 246.690,49.849 251.200 C 49.038 261.982,48.036 278.838,47.804 285.600 C 47.702 288.570,47.342 295.910,47.005 301.912 C 46.667 307.914,46.409 313.944,46.432 315.312 C 46.454 316.680,46.373 321.040,46.252 325.000 C 46.130 328.960,45.841 339.130,45.610 347.600 C 45.379 356.070,45.146 364.395,45.092 366.100 C 45.014 368.561,45.111 369.200,45.564 369.200 C 45.877 369.200,46.029 369.304,45.901 369.432 C 45.773 369.560,46.407 370.325,47.309 371.132 C 49.244 372.865,51.150 374.590,52.034 375.411 C 52.382 375.735,52.805 376.000,52.973 376.000 C 53.141 376.000,53.783 376.540,54.400 377.200 C 55.017 377.860,55.733 378.400,55.992 378.400 C 56.251 378.400,57.154 379.120,58.000 380.000 C 58.846 380.880,59.806 381.600,60.135 381.600 C 60.464 381.600,60.793 381.745,60.867 381.923 C 61.059 382.391,64.665 384.800,65.172 384.800 C 65.407 384.800,65.600 384.980,65.600 385.200 C 65.600 385.420,65.870 385.600,66.200 385.600 C 66.530 385.600,66.803 385.825,66.806 386.100 C 66.810 386.433,66.942 386.400,67.200 386.000 C 67.545 385.467,67.590 385.467,67.608 386.000 C 67.620 386.363,67.854 386.205,68.200 385.600 C 68.594 384.911,68.776 383.278,68.786 380.349 C 68.794 378.011,69.050 372.521,69.356 368.149 C 69.662 363.777,69.916 359.840,69.921 359.400 C 69.948 356.906,72.089 326.762,73.444 309.800 C 73.778 305.620,74.137 300.040,74.240 297.400 C 74.344 294.760,74.602 291.736,74.814 290.680 C 75.026 289.624,75.200 285.889,75.200 282.380 C 75.200 278.393,75.350 276.000,75.600 276.000 C 75.829 276.000,76.000 274.798,76.000 273.195 C 76.000 271.652,76.225 270.008,76.500 269.542 C 76.900 268.865,76.900 268.659,76.500 268.514 C 75.943 268.313,75.804 266.800,76.342 266.800 C 76.529 266.800,76.665 265.585,76.643 264.100 C 76.592 260.706,77.100 248.481,77.619 240.600 C 77.836 237.300,78.185 229.380,78.394 223.000 C 78.604 216.620,78.952 206.990,79.169 201.600 C 79.386 196.210,79.663 185.842,79.785 178.561 L 80.006 165.322 78.810 165.288 C 78.152 165.269,77.510 165.422,77.383 165.627 M104.653 166.300 C 104.537 166.905,104.157 172.350,103.808 178.400 C 103.458 184.450,102.897 193.096,102.560 197.613 C 102.223 202.130,101.870 207.710,101.776 210.013 C 101.681 212.316,101.350 217.170,101.039 220.800 C 100.728 224.430,100.473 227.760,100.470 228.200 C 100.468 228.640,100.352 230.845,100.213 233.100 C 99.970 237.013,99.995 237.200,100.756 237.200 C 101.194 237.200,101.664 237.020,101.800 236.800 C 101.936 236.580,102.476 236.400,103.000 236.400 C 103.524 236.400,104.051 236.241,104.171 236.046 C 104.802 235.025,117.283 233.523,118.127 234.367 C 118.365 234.605,119.526 234.800,120.706 234.800 C 121.887 234.800,123.201 234.986,123.626 235.214 C 124.358 235.606,124.404 235.459,124.473 232.514 L 124.547 229.400 124.773 232.600 C 125.059 236.639,126.284 217.927,126.815 201.400 C 127.006 195.460,127.360 186.220,127.603 180.868 C 128.076 170.440,128.018 170.000,126.175 170.000 C 125.665 170.000,125.136 169.820,125.000 169.600 C 124.864 169.380,124.324 169.200,123.800 169.200 C 123.276 169.200,122.736 169.020,122.600 168.800 C 122.464 168.580,121.834 168.400,121.200 168.400 C 120.566 168.400,119.936 168.220,119.800 168.000 C 119.664 167.780,119.023 167.600,118.376 167.600 C 117.729 167.600,117.200 167.420,117.200 167.200 C 117.200 166.980,116.311 166.800,115.224 166.800 C 114.137 166.800,113.136 166.620,113.000 166.400 C 112.864 166.180,112.054 166.000,111.200 166.000 C 110.346 166.000,109.536 165.820,109.400 165.600 C 108.765 164.572,104.874 165.146,104.653 166.300 M278.694 174.700 C 278.612 175.745,278.544 174.890,278.544 172.800 C 278.544 170.710,278.612 169.855,278.694 170.900 C 278.776 171.945,278.776 173.655,278.694 174.700 M176.290 172.893 C 176.201 173.612,176.126 173.120,176.124 171.800 C 176.122 170.480,176.195 169.892,176.286 170.493 C 176.377 171.094,176.379 172.174,176.290 172.893 M127.093 174.889 C 127.009 175.830,126.939 175.160,126.937 173.400 C 126.936 171.640,127.005 170.870,127.091 171.689 C 127.177 172.509,127.178 173.949,127.093 174.889 M131.853 176.100 C 131.609 179.819,131.357 186.858,130.988 200.200 C 130.879 204.160,130.514 211.810,130.177 217.200 C 129.840 222.590,129.567 228.714,129.571 230.810 C 129.576 233.202,129.382 234.998,129.050 235.639 C 128.524 236.653,128.541 236.668,132.047 238.357 C 133.987 239.291,135.683 240.031,135.817 240.001 C 135.951 239.972,136.383 240.319,136.777 240.774 C 137.171 241.228,137.712 241.600,137.978 241.600 C 138.245 241.600,139.154 242.320,140.000 243.200 C 140.846 244.080,141.654 244.800,141.797 244.800 C 142.262 244.800,143.169 245.898,142.914 246.152 C 142.778 246.289,142.857 246.400,143.091 246.400 C 143.958 246.400,143.916 246.787,145.405 225.000 C 145.750 219.940,146.378 211.210,146.798 205.600 C 148.603 181.543,148.655 180.101,147.712 180.318 C 147.430 180.382,147.200 180.157,147.200 179.818 C 147.200 179.291,146.646 178.976,146.290 179.300 C 146.230 179.355,145.915 179.172,145.590 178.894 C 144.368 177.848,142.037 176.465,140.644 175.961 C 139.850 175.674,139.200 175.295,139.200 175.120 C 139.200 174.944,138.829 174.800,138.376 174.800 C 137.923 174.800,137.664 174.620,137.800 174.400 C 137.936 174.180,137.677 174.000,137.224 174.000 C 136.771 174.000,136.400 173.820,136.400 173.600 C 136.400 173.380,135.950 173.200,135.400 173.200 C 134.850 173.200,134.400 173.020,134.400 172.800 C 134.400 172.580,133.881 172.400,133.248 172.400 L 132.095 172.400 131.853 176.100 M47.000 178.255 C 44.102 180.462,34.800 189.737,34.800 190.420 C 34.800 190.687,34.474 191.197,34.075 191.553 C 33.676 191.909,32.798 193.011,32.123 194.002 C 30.973 195.692,30.534 196.427,28.143 200.677 C 27.625 201.599,27.200 202.615,27.200 202.934 C 27.200 203.253,26.911 203.625,26.558 203.761 C 26.192 203.901,26.015 204.263,26.146 204.603 C 26.272 204.932,26.201 205.200,25.987 205.200 C 25.774 205.200,25.600 205.560,25.600 206.000 C 25.600 206.440,25.420 206.800,25.200 206.800 C 24.980 206.800,24.800 207.160,24.800 207.600 C 24.800 208.040,24.620 208.400,24.400 208.400 C 24.180 208.400,24.000 208.745,24.000 209.167 C 24.000 209.588,23.805 209.998,23.567 210.078 C 23.287 210.171,23.010 213.405,22.786 219.211 C 22.595 224.155,22.171 233.510,21.843 240.000 C 21.515 246.490,21.242 253.960,21.236 256.600 C 21.230 259.240,21.043 266.890,20.821 273.600 C 20.101 295.279,20.186 335.014,20.955 336.187 C 21.310 336.729,21.600 337.322,21.600 337.506 C 21.600 338.097,22.590 339.994,22.900 339.997 C 23.065 339.999,23.200 340.281,23.200 340.624 C 23.200 340.967,23.380 341.136,23.600 341.000 C 23.820 340.864,24.000 341.123,24.000 341.576 C 24.000 342.029,24.180 342.400,24.400 342.400 C 24.620 342.400,24.800 342.760,24.800 343.200 C 24.800 343.640,24.980 344.000,25.200 344.000 C 25.420 344.000,25.600 344.270,25.600 344.600 C 25.600 344.930,25.758 345.200,25.951 345.200 C 26.145 345.200,26.543 345.785,26.837 346.500 C 27.483 348.072,28.878 350.281,29.986 351.486 C 30.434 351.973,30.800 352.518,30.800 352.697 C 30.800 352.877,31.160 353.283,31.600 353.600 C 32.040 353.917,32.400 354.407,32.400 354.688 C 32.400 354.970,32.580 355.200,32.800 355.200 C 33.020 355.200,33.200 355.382,33.200 355.604 C 33.200 355.826,33.740 356.572,34.400 357.263 C 35.060 357.954,35.600 358.662,35.600 358.837 C 35.600 359.195,40.830 364.513,40.994 364.322 C 41.103 364.197,41.901 337.234,42.217 323.000 C 42.581 306.608,44.050 276.888,45.776 251.000 C 46.069 246.600,46.314 242.640,46.320 242.200 C 46.337 240.974,46.711 235.758,47.366 227.600 C 47.694 223.530,48.250 215.880,48.604 210.600 C 48.957 205.320,49.596 196.498,50.023 190.995 C 51.288 174.709,51.344 174.946,47.000 178.255 M175.487 183.100 C 175.395 183.705,175.320 183.210,175.320 182.000 C 175.320 180.790,175.395 180.295,175.487 180.900 C 175.578 181.505,175.578 182.495,175.487 183.100 M243.487 186.300 C 243.395 186.905,243.320 186.410,243.320 185.200 C 243.320 183.990,243.395 183.495,243.487 184.100 C 243.578 184.705,243.578 185.695,243.487 186.300 M272.291 187.900 C 272.205 188.725,272.134 188.050,272.134 186.400 C 272.134 184.750,272.205 184.075,272.291 184.900 C 272.378 185.725,272.378 187.075,272.291 187.900 M230.293 195.300 C 230.209 196.235,230.140 195.470,230.140 193.600 C 230.140 191.730,230.209 190.965,230.293 191.900 C 230.377 192.835,230.377 194.365,230.293 195.300 M126.295 200.087 C 126.214 201.249,126.147 200.400,126.146 198.200 C 126.145 196.000,126.211 195.049,126.293 196.087 C 126.376 197.124,126.376 198.924,126.295 200.087 M193.487 198.295 C 193.395 198.903,193.317 198.500,193.314 197.400 C 193.311 196.300,193.387 195.803,193.482 196.295 C 193.577 196.786,193.579 197.686,193.487 198.295 M242.687 199.100 C 242.595 199.705,242.520 199.210,242.520 198.000 C 242.520 196.790,242.595 196.295,242.687 196.900 C 242.778 197.505,242.778 198.495,242.687 199.100 M277.089 206.500 C 277.001 207.215,276.928 206.630,276.928 205.200 C 276.928 203.770,277.001 203.185,277.089 203.900 C 277.178 204.615,277.178 205.785,277.089 206.500 M223.893 208.889 C 223.809 209.830,223.739 209.160,223.737 207.400 C 223.736 205.640,223.805 204.870,223.891 205.689 C 223.977 206.509,223.978 207.949,223.893 208.889 M241.887 208.300 C 241.795 208.905,241.720 208.410,241.720 207.200 C 241.720 205.990,241.795 205.495,241.887 206.100 C 241.978 206.705,241.978 207.695,241.887 208.300 M192.687 211.500 C 192.595 212.105,192.520 211.610,192.520 210.400 C 192.520 209.190,192.595 208.695,192.687 209.300 C 192.778 209.905,192.778 210.895,192.687 211.500 M125.493 214.500 C 125.409 215.435,125.340 214.670,125.340 212.800 C 125.340 210.930,125.409 210.165,125.493 211.100 C 125.577 212.035,125.577 213.565,125.493 214.500 M247.483 212.495 C 247.387 212.993,247.305 212.680,247.301 211.800 C 247.296 210.920,247.375 210.513,247.475 210.895 C 247.575 211.278,247.579 211.998,247.483 212.495 M229.491 215.500 C 229.405 216.325,229.334 215.650,229.334 214.000 C 229.334 212.350,229.405 211.675,229.491 212.500 C 229.578 213.325,229.578 214.675,229.491 215.500 M131.093 221.689 C 131.009 222.630,130.939 221.960,130.937 220.200 C 130.936 218.440,131.005 217.670,131.091 218.489 C 131.177 219.309,131.178 220.749,131.093 221.689 M191.887 221.100 C 191.795 221.705,191.720 221.210,191.720 220.000 C 191.720 218.790,191.795 218.295,191.887 218.900 C 191.978 219.505,191.978 220.495,191.887 221.100 M241.087 220.695 C 240.995 221.303,240.917 220.900,240.914 219.800 C 240.911 218.700,240.987 218.203,241.082 218.695 C 241.177 219.186,241.179 220.086,241.087 220.695 M276.287 222.300 C 276.195 222.905,276.120 222.410,276.120 221.200 C 276.120 219.990,276.195 219.495,276.287 220.100 C 276.378 220.705,276.378 221.695,276.287 222.300 M17.540 225.500 C 17.507 227.205,17.405 228.105,17.313 227.500 C 17.082 225.972,16.000 226.055,16.000 227.600 C 16.000 228.260,15.820 228.800,15.600 228.800 C 15.380 228.800,15.200 229.239,15.200 229.776 C 15.200 230.313,15.020 230.864,14.800 231.000 C 14.580 231.136,14.400 231.676,14.400 232.200 C 14.400 232.724,14.220 233.264,14.000 233.400 C 13.780 233.536,13.600 234.076,13.600 234.600 C 13.600 235.124,13.420 235.664,13.200 235.800 C 12.980 235.936,12.800 236.577,12.800 237.224 C 12.800 237.871,12.590 238.400,12.333 238.400 C 12.077 238.400,11.970 238.504,12.097 238.630 C 12.223 238.757,12.148 239.432,11.929 240.130 C 11.710 240.829,11.448 242.030,11.347 242.800 C 11.246 243.570,10.990 244.260,10.779 244.334 C 10.568 244.408,10.487 244.618,10.600 244.801 C 10.713 244.983,10.630 245.594,10.416 246.157 C 10.202 246.721,9.925 247.951,9.801 248.891 C 9.677 249.831,9.472 251.365,9.346 252.300 C 9.219 253.235,8.955 254.000,8.758 254.000 C 8.561 254.000,8.400 255.350,8.400 257.000 C 8.400 258.733,8.231 260.000,8.000 260.000 C 7.776 260.000,7.600 261.107,7.600 262.520 C 7.600 263.982,7.390 265.266,7.100 265.579 C 6.700 266.010,6.700 266.061,7.100 265.835 C 7.375 265.680,7.600 265.743,7.600 265.976 C 7.600 266.209,7.420 266.400,7.200 266.400 C 6.980 266.400,6.803 266.805,6.806 267.300 C 6.811 268.028,6.886 268.085,7.200 267.600 C 7.455 267.205,7.590 271.211,7.594 279.300 C 7.597 286.065,7.450 291.600,7.267 291.600 C 6.877 291.600,6.923 293.056,7.325 293.459 C 7.476 293.610,7.600 294.873,7.600 296.267 C 7.600 297.689,7.775 298.800,8.000 298.800 C 8.220 298.800,8.400 299.779,8.400 300.976 C 8.400 302.173,8.580 303.264,8.800 303.400 C 9.020 303.536,9.200 304.256,9.200 305.000 C 9.200 305.744,9.377 306.462,9.594 306.596 C 9.811 306.730,9.963 307.236,9.932 307.720 C 9.862 308.830,11.010 313.325,12.071 316.090 C 12.516 317.251,12.927 318.470,12.984 318.800 C 13.391 321.169,14.588 322.334,14.936 320.700 C 15.041 320.205,15.110 320.617,15.088 321.616 C 15.043 323.717,15.493 324.814,16.042 323.943 C 16.231 323.644,16.386 314.760,16.388 304.200 C 16.390 293.640,16.573 279.960,16.795 273.800 C 17.016 267.640,17.202 260.170,17.207 257.200 C 17.216 251.813,18.245 227.739,18.569 225.329 C 18.768 223.853,18.462 222.400,17.953 222.400 C 17.759 222.400,17.573 223.795,17.540 225.500 M197.487 226.300 C 197.395 226.905,197.320 226.410,197.320 225.200 C 197.320 223.990,197.395 223.495,197.487 224.100 C 197.578 224.705,197.578 225.695,197.487 226.300 M228.692 227.491 C 228.605 228.321,228.533 227.740,228.531 226.200 C 228.529 224.660,228.600 223.981,228.689 224.691 C 228.777 225.401,228.779 226.661,228.692 227.491 M240.287 230.300 C 240.195 230.905,240.120 230.410,240.120 229.200 C 240.120 227.990,240.195 227.495,240.287 228.100 C 240.378 228.705,240.378 229.695,240.287 230.300 M275.487 232.300 C 275.395 232.905,275.320 232.410,275.320 231.200 C 275.320 229.990,275.395 229.495,275.487 230.100 C 275.578 230.705,275.578 231.695,275.487 232.300 M77.093 235.689 C 77.009 236.630,76.939 235.960,76.937 234.200 C 76.936 232.440,77.005 231.670,77.091 232.489 C 77.177 233.309,77.178 234.749,77.093 235.689 M191.090 235.693 C 191.001 236.412,190.926 235.920,190.924 234.600 C 190.922 233.280,190.995 232.692,191.086 233.293 C 191.177 233.894,191.179 234.974,191.090 235.693 M245.887 235.095 C 245.795 235.703,245.717 235.300,245.714 234.200 C 245.711 233.100,245.787 232.603,245.882 233.095 C 245.977 233.586,245.979 234.486,245.887 235.095 M222.290 237.693 C 222.201 238.412,222.126 237.920,222.124 236.600 C 222.122 235.280,222.195 234.692,222.286 235.293 C 222.377 235.894,222.379 236.974,222.290 237.693 M143.487 241.900 C 143.395 242.505,143.320 242.010,143.320 240.800 C 143.320 239.590,143.395 239.095,143.487 239.700 C 143.578 240.305,143.578 241.295,143.487 241.900 M227.890 243.293 C 227.801 244.012,227.726 243.520,227.724 242.200 C 227.722 240.880,227.795 240.292,227.886 240.893 C 227.977 241.494,227.979 242.574,227.890 243.293 M239.487 244.295 C 239.395 244.903,239.317 244.500,239.314 243.400 C 239.311 242.300,239.387 241.803,239.482 242.295 C 239.577 242.786,239.579 243.686,239.487 244.295 M195.892 253.091 C 195.805 253.921,195.733 253.340,195.731 251.800 C 195.729 250.260,195.800 249.581,195.889 250.291 C 195.977 251.001,195.979 252.261,195.892 253.091 M227.090 253.293 C 227.001 254.012,226.926 253.520,226.924 252.200 C 226.922 250.880,226.995 250.292,227.086 250.893 C 227.177 251.494,227.179 252.574,227.090 253.293 M76.292 254.291 C 76.205 255.121,76.133 254.540,76.131 253.000 C 76.129 251.460,76.200 250.781,76.289 251.491 C 76.377 252.201,76.379 253.461,76.292 254.291 M238.689 255.300 C 238.601 256.015,238.528 255.430,238.528 254.000 C 238.528 252.570,238.601 251.985,238.689 252.700 C 238.778 253.415,238.778 254.585,238.689 255.300 M244.292 261.091 C 244.205 261.921,244.133 261.340,244.131 259.800 C 244.129 258.260,244.200 257.581,244.289 258.291 C 244.377 259.001,244.379 260.261,244.292 261.091 M189.491 265.500 C 189.405 266.325,189.334 265.650,189.334 264.000 C 189.334 262.350,189.405 261.675,189.491 262.500 C 189.578 263.325,189.578 264.675,189.491 265.500 M75.491 266.300 C 75.405 267.125,75.334 266.450,75.334 264.800 C 75.334 263.150,75.405 262.475,75.491 263.300 C 75.578 264.125,75.578 265.475,75.491 266.300 M226.287 267.100 C 226.195 267.705,226.120 267.210,226.120 266.000 C 226.120 264.790,226.195 264.295,226.287 264.900 C 226.378 265.505,226.378 266.495,226.287 267.100 M237.889 272.900 C 237.801 273.615,237.728 273.030,237.728 271.600 C 237.728 270.170,237.801 269.585,237.889 270.300 C 237.978 271.015,237.978 272.185,237.889 272.900 M243.491 273.500 C 243.405 274.325,243.334 273.650,243.334 272.000 C 243.334 270.350,243.405 269.675,243.491 270.500 C 243.578 271.325,243.578 272.675,243.491 273.500 M225.487 276.300 C 225.395 276.905,225.320 276.410,225.320 275.200 C 225.320 273.990,225.395 273.495,225.487 274.100 C 225.578 274.705,225.578 275.695,225.487 276.300 M43.492 279.891 C 43.405 280.721,43.333 280.140,43.331 278.600 C 43.329 277.060,43.400 276.381,43.489 277.091 C 43.577 277.801,43.579 279.061,43.492 279.891 M194.296 290.700 C 194.216 291.965,194.151 290.930,194.151 288.400 C 194.151 285.870,194.216 284.835,194.296 286.100 C 194.375 287.365,194.375 289.435,194.296 290.700 M42.693 292.500 C 42.609 293.435,42.540 292.670,42.540 290.800 C 42.540 288.930,42.609 288.165,42.693 289.100 C 42.777 290.035,42.777 291.565,42.693 292.500 M242.695 295.687 C 242.614 296.849,242.547 296.000,242.546 293.800 C 242.545 291.600,242.611 290.649,242.693 291.687 C 242.776 292.724,242.776 294.524,242.695 295.687 M78.230 300.900 C 77.926 302.824,77.227 311.248,77.012 315.600 C 76.908 317.690,76.551 323.000,76.219 327.400 C 74.831 345.792,74.375 352.298,74.355 354.000 C 74.343 354.990,74.001 360.480,73.594 366.200 C 72.762 377.918,72.337 389.910,72.808 388.400 C 73.109 387.435,73.122 387.443,73.160 388.636 C 73.200 389.867,74.346 390.800,75.819 390.800 C 76.138 390.800,76.400 390.980,76.400 391.200 C 76.400 391.420,76.940 391.600,77.600 391.600 C 78.260 391.600,78.800 391.780,78.800 392.000 C 78.800 392.220,79.070 392.400,79.400 392.400 C 79.730 392.400,80.000 392.580,80.000 392.800 C 80.000 393.020,80.272 393.200,80.605 393.200 C 80.938 393.200,81.523 393.359,81.905 393.553 C 82.287 393.748,83.140 394.129,83.800 394.400 C 84.460 394.671,85.313 395.052,85.695 395.247 C 86.077 395.441,86.752 395.600,87.195 395.600 C 87.638 395.600,88.000 395.780,88.000 396.000 C 88.000 396.220,88.270 396.400,88.600 396.400 C 88.961 396.400,89.193 396.041,89.182 395.500 C 89.074 390.096,89.671 355.271,90.017 346.800 C 90.264 340.750,90.587 331.300,90.736 325.800 L 91.006 315.800 87.603 312.367 C 85.731 310.479,84.144 308.690,84.075 308.392 C 84.006 308.094,83.601 307.548,83.175 307.178 C 82.749 306.809,82.400 306.336,82.400 306.129 C 82.400 305.921,82.069 305.396,81.665 304.962 C 81.261 304.528,80.811 303.697,80.664 303.115 C 80.518 302.532,80.129 301.786,79.799 301.457 C 79.470 301.127,79.200 300.574,79.200 300.229 C 79.200 299.062,78.438 299.589,78.230 300.900 M73.087 303.900 C 72.995 304.505,72.920 304.010,72.920 302.800 C 72.920 301.590,72.995 301.095,73.087 301.700 C 73.178 302.305,73.178 303.295,73.087 303.900 M187.898 313.281 C 187.824 315.106,187.762 313.720,187.762 310.200 C 187.761 306.680,187.822 305.186,187.897 306.881 C 187.972 308.576,187.972 311.456,187.898 313.281 M241.897 315.900 C 241.820 317.385,241.757 316.170,241.757 313.200 C 241.757 310.230,241.820 309.015,241.897 310.500 C 241.974 311.985,241.974 314.415,241.897 315.900 M41.896 315.100 C 41.816 316.365,41.751 315.330,41.751 312.800 C 41.751 310.270,41.816 309.235,41.896 310.500 C 41.975 311.765,41.975 313.835,41.896 315.100 M47.494 315.100 C 47.412 316.145,47.344 315.290,47.344 313.200 C 47.344 311.110,47.412 310.255,47.494 311.300 C 47.576 312.345,47.576 314.055,47.494 315.100 M77.887 317.500 C 77.795 318.105,77.720 317.610,77.720 316.400 C 77.720 315.190,77.795 314.695,77.887 315.300 C 77.978 315.905,77.978 316.895,77.887 317.500 M138.000 318.000 C 137.230 318.659,136.390 319.199,136.133 319.199 C 135.877 319.200,135.607 319.336,135.533 319.502 C 135.460 319.668,134.140 320.407,132.600 321.144 C 131.060 321.881,129.487 322.645,129.105 322.842 C 128.723 323.039,128.048 323.200,127.605 323.200 C 127.162 323.200,126.800 323.380,126.800 323.600 C 126.800 323.820,126.007 324.000,125.038 324.000 L 123.277 324.000 123.044 328.300 C 122.916 330.665,122.525 336.740,122.175 341.800 C 121.825 346.860,121.374 354.780,121.174 359.400 C 120.973 364.020,120.540 372.390,120.211 378.000 C 119.882 383.610,119.610 390.883,119.606 394.162 L 119.600 400.123 125.290 399.852 C 128.420 399.702,131.156 399.404,131.370 399.190 C 131.585 398.975,132.343 398.800,133.056 398.800 C 133.769 398.800,134.464 398.620,134.600 398.400 C 134.736 398.180,135.389 398.000,136.052 398.000 C 136.715 398.000,137.511 397.746,137.822 397.436 C 138.132 397.125,138.704 396.954,139.093 397.055 C 139.763 397.229,139.803 395.879,139.864 371.119 C 139.900 356.754,140.124 339.215,140.363 332.145 C 140.912 315.922,140.851 315.560,138.000 318.000 M193.499 331.500 C 193.429 334.085,193.372 331.970,193.372 326.800 C 193.372 321.630,193.429 319.515,193.499 322.100 C 193.568 324.685,193.568 328.915,193.499 331.500 M95.246 319.600 C 94.627 323.981,93.881 348.332,93.646 371.800 C 93.363 400.157,93.268 397.798,94.692 397.916 C 95.282 397.965,95.944 398.184,96.162 398.402 C 96.381 398.621,97.298 398.800,98.200 398.800 C 99.102 398.800,100.038 398.998,100.280 399.240 C 100.550 399.510,103.559 399.763,108.102 399.897 L 115.484 400.116 115.703 390.758 C 115.932 381.016,116.745 364.776,117.845 348.000 C 118.199 342.610,118.552 336.670,118.630 334.800 C 118.708 332.930,118.876 329.935,119.003 328.144 L 119.235 324.889 114.720 324.827 C 112.237 324.793,110.033 324.593,109.823 324.383 C 109.612 324.172,108.756 324.000,107.920 324.000 C 107.084 324.000,106.400 323.820,106.400 323.600 C 106.400 323.380,105.871 323.200,105.224 323.200 C 104.577 323.200,103.936 323.020,103.800 322.800 C 103.664 322.580,103.103 322.400,102.553 322.400 C 101.988 322.400,101.660 322.226,101.800 322.000 C 101.941 321.772,101.596 321.600,101.000 321.600 C 100.404 321.600,100.059 321.428,100.200 321.200 C 100.341 320.972,99.999 320.800,99.407 320.800 C 98.835 320.800,97.980 320.440,97.508 320.000 C 96.229 318.809,96.006 318.993,95.935 321.300 L 95.870 323.400 95.600 321.200 C 95.452 319.990,95.292 319.270,95.246 319.600 M71.482 325.300 C 71.387 325.795,71.309 325.390,71.309 324.400 C 71.309 323.410,71.387 323.005,71.482 323.500 C 71.578 323.995,71.578 324.805,71.482 325.300 M139.498 334.900 C 139.423 336.715,139.363 335.230,139.363 331.600 C 139.363 327.970,139.423 326.485,139.498 328.300 C 139.572 330.115,139.572 333.085,139.498 334.900 M41.097 335.682 C 41.021 337.287,40.958 336.080,40.958 333.000 C 40.957 329.920,41.019 328.607,41.096 330.082 C 41.173 331.558,41.173 334.078,41.097 335.682 M77.082 330.100 C 76.987 330.595,76.909 330.190,76.909 329.200 C 76.909 328.210,76.987 327.805,77.082 328.300 C 77.178 328.795,77.178 329.605,77.082 330.100 M89.497 338.884 C 89.418 340.268,89.353 339.240,89.353 336.600 C 89.352 333.960,89.416 332.828,89.495 334.084 C 89.574 335.341,89.575 337.501,89.497 338.884 M76.287 339.100 C 76.195 339.705,76.120 339.210,76.120 338.000 C 76.120 336.790,76.195 336.295,76.287 336.900 C 76.378 337.505,76.378 338.495,76.287 339.100 M46.697 349.720 C 46.623 351.524,46.563 349.940,46.564 346.200 C 46.564 342.460,46.625 340.984,46.698 342.920 C 46.772 344.855,46.771 347.915,46.697 349.720 M95.097 350.482 C 95.021 352.087,94.958 350.880,94.958 347.800 C 94.957 344.720,95.019 343.407,95.096 344.882 C 95.173 346.358,95.173 348.878,95.097 350.482 M75.487 352.295 C 75.395 352.903,75.317 352.500,75.314 351.400 C 75.311 350.300,75.387 349.803,75.482 350.295 C 75.577 350.786,75.579 351.686,75.487 352.295 M94.299 389.300 C 94.234 393.095,94.180 389.990,94.180 382.400 C 94.180 374.810,94.234 371.705,94.299 375.500 C 94.365 379.295,94.365 385.505,94.299 389.300 M193.497 395.284 C 193.418 396.668,193.353 395.640,193.353 393.000 C 193.352 390.360,193.416 389.228,193.495 390.484 C 193.574 391.741,193.575 393.901,193.497 395.284 " stroke="none" fill="#04c3cb" fill-rule="evenodd"></path><path id="path3" d="M210.887 0.267 C 209.178 0.366,208.072 0.593,208.211 0.818 C 208.349 1.042,207.608 1.200,206.424 1.200 C 205.311 1.200,204.400 1.380,204.400 1.600 C 204.400 1.820,203.754 2.000,202.964 2.000 C 201.969 2.000,201.310 2.269,200.818 2.878 C 200.244 3.586,199.749 3.737,198.254 3.659 C 197.109 3.600,196.400 3.732,196.400 4.005 C 196.400 4.248,196.578 4.337,196.795 4.203 C 197.032 4.057,197.083 4.240,196.922 4.659 C 196.757 5.090,196.592 5.175,196.493 4.880 C 196.405 4.616,195.796 4.400,195.140 4.400 C 194.128 4.400,193.985 4.522,194.200 5.200 C 194.346 5.659,194.272 6.000,194.027 6.000 C 193.792 6.000,193.600 5.820,193.600 5.600 C 193.600 5.380,193.330 5.200,193.000 5.200 C 192.667 5.200,192.400 5.556,192.400 6.000 C 192.400 6.891,191.616 7.056,190.880 6.320 C 190.507 5.947,190.400 5.947,190.400 6.320 C 190.400 6.584,190.040 6.800,189.600 6.800 C 189.160 6.800,188.800 6.980,188.800 7.200 C 188.800 7.420,188.418 7.600,187.951 7.600 C 187.236 7.600,187.182 7.696,187.608 8.210 C 188.265 9.001,187.801 9.465,187.010 8.808 C 186.560 8.435,186.400 8.426,186.400 8.775 C 186.400 9.035,186.220 9.136,186.000 9.000 C 185.780 8.864,185.600 9.045,185.600 9.402 C 185.600 9.794,185.323 10.008,184.900 9.943 C 184.166 9.831,182.831 10.442,181.931 11.303 C 181.639 11.582,180.920 12.117,180.334 12.492 C 179.595 12.964,179.330 13.412,179.471 13.951 C 179.609 14.476,179.278 15.081,178.448 15.820 C 176.995 17.115,177.094 17.416,179.095 17.791 C 179.922 17.947,180.689 18.218,180.799 18.394 C 180.910 18.571,182.170 18.813,183.600 18.933 C 185.030 19.053,188.360 19.517,191.000 19.964 C 193.640 20.412,196.880 20.884,198.200 21.014 C 199.520 21.143,201.230 21.432,202.000 21.655 C 205.088 22.550,206.012 22.704,206.227 22.357 C 206.349 22.159,206.843 22.085,207.325 22.193 C 207.806 22.301,210.360 22.478,213.000 22.586 C 224.697 23.064,226.986 23.275,227.500 23.922 C 227.836 24.347,228.000 24.388,228.000 24.048 C 228.000 23.765,228.395 23.581,228.900 23.631 C 229.395 23.679,230.070 23.609,230.400 23.475 C 231.211 23.145,245.409 22.469,249.400 22.571 C 251.160 22.615,253.140 22.505,253.800 22.325 C 255.257 21.928,260.323 21.300,264.400 21.011 C 266.050 20.894,268.930 20.551,270.800 20.247 C 272.670 19.944,275.145 19.787,276.300 19.899 C 277.711 20.035,278.400 19.954,278.400 19.651 C 278.400 19.403,278.220 19.200,278.000 19.200 C 277.780 19.200,277.600 18.840,277.600 18.400 C 277.600 17.960,277.420 17.600,277.200 17.600 C 276.980 17.600,276.800 17.240,276.800 16.800 C 276.800 16.360,276.620 16.000,276.400 16.000 C 276.180 16.000,276.000 15.640,276.000 15.200 C 276.000 14.760,275.842 14.400,275.649 14.400 C 275.455 14.400,275.080 13.877,274.815 13.237 C 274.254 11.882,269.933 7.600,269.126 7.600 C 268.824 7.600,268.317 7.240,268.000 6.800 C 267.683 6.360,267.103 6.000,266.712 6.000 C 266.320 6.000,266.000 5.820,266.000 5.600 C 266.000 5.380,265.640 5.200,265.200 5.200 C 264.760 5.200,264.400 5.020,264.400 4.800 C 264.400 4.580,264.040 4.400,263.600 4.400 C 263.160 4.400,262.800 4.220,262.800 4.000 C 262.800 3.780,262.260 3.600,261.600 3.600 C 260.940 3.600,260.400 3.420,260.400 3.200 C 260.400 2.980,259.860 2.800,259.200 2.800 C 258.540 2.800,258.000 2.620,258.000 2.400 C 258.000 2.180,257.280 2.000,256.400 2.000 C 255.520 2.000,254.800 1.820,254.800 1.600 C 254.800 1.380,253.825 1.200,252.633 1.200 C 251.442 1.200,250.402 1.007,250.323 0.770 C 250.178 0.333,217.040 -0.090,210.887 0.267 M241.874 3.818 C 253.235 5.307,258.260 7.846,262.387 14.181 C 265.112 18.362,265.623 18.084,252.800 19.400 C 251.810 19.502,249.110 19.796,246.800 20.053 C 241.246 20.672,216.513 20.683,211.800 20.069 C 209.820 19.811,207.570 19.519,206.800 19.420 C 202.767 18.902,197.324 17.975,193.002 17.070 C 190.040 16.450,189.772 15.730,191.830 13.912 C 197.924 8.527,203.752 6.027,216.200 3.458 C 218.521 2.979,237.504 3.245,241.874 3.818 M219.000 6.789 C 218.560 6.984,217.729 7.156,217.153 7.172 C 213.341 7.274,202.400 12.607,202.400 14.363 C 202.400 16.346,232.075 18.099,243.200 16.773 C 251.187 15.821,252.055 15.607,251.766 14.661 C 250.656 11.032,245.294 7.911,238.494 6.935 C 235.532 6.511,219.892 6.393,219.000 6.789 M21.600 213.600 C 21.600 214.040,21.420 214.400,21.200 214.400 C 20.980 214.400,20.800 214.582,20.800 214.803 C 20.800 215.048,21.103 215.018,21.569 214.726 C 21.992 214.462,22.314 213.921,22.284 213.523 C 22.210 212.535,21.600 212.603,21.600 213.600 M96.400 239.067 C 96.400 239.360,96.561 239.600,96.757 239.600 C 96.954 239.600,97.207 239.360,97.319 239.067 C 97.432 238.773,97.271 238.533,96.962 238.533 C 96.653 238.533,96.400 238.773,96.400 239.067 M144.000 247.429 C 144.000 247.554,144.270 247.927,144.600 248.257 C 145.251 248.908,145.333 248.811,144.957 247.833 C 144.729 247.238,144.000 246.930,144.000 247.429 M76.800 266.800 C 76.800 267.240,76.980 267.600,77.200 267.600 C 77.420 267.600,77.600 267.240,77.600 266.800 C 77.600 266.360,77.420 266.000,77.200 266.000 C 76.980 266.000,76.800 266.360,76.800 266.800 M75.333 287.600 C 75.333 288.260,75.483 288.800,75.667 288.800 C 75.850 288.800,76.000 288.260,76.000 287.600 C 76.000 286.940,75.850 286.400,75.667 286.400 C 75.483 286.400,75.333 286.940,75.333 287.600 " stroke="none" fill="#048a89" fill-rule="evenodd"></path><path id="path4" d="M219.532 4.443 C 218.386 5.149,230.675 5.480,232.800 4.800 C 233.350 4.624,233.530 4.453,233.200 4.421 C 231.188 4.224,219.857 4.242,219.532 4.443 M215.815 5.624 C 215.943 5.831,216.697 6.000,217.490 6.000 C 219.261 6.000,219.100 5.790,217.091 5.480 C 216.191 5.341,215.676 5.399,215.815 5.624 M237.800 5.600 C 236.812 5.851,237.007 5.914,238.900 5.953 C 240.198 5.979,241.200 5.826,241.200 5.600 C 241.200 5.146,239.583 5.146,237.800 5.600 M258.591 11.591 C 259.669 12.686,260.625 13.508,260.714 13.419 C 260.918 13.216,257.330 9.600,256.926 9.600 C 256.763 9.600,257.512 10.496,258.591 11.591 M262.074 16.202 C 262.325 16.753,262.584 17.150,262.649 17.084 C 262.892 16.841,262.294 15.200,261.962 15.200 C 261.772 15.200,261.823 15.651,262.074 16.202 M208.600 18.000 L 207.400 18.305 208.700 18.353 C 209.415 18.379,210.000 18.220,210.000 18.000 C 210.000 17.780,209.955 17.621,209.900 17.647 C 209.845 17.673,209.260 17.832,208.600 18.000 M245.700 17.876 C 246.085 17.976,246.715 17.976,247.100 17.876 C 247.485 17.775,247.170 17.693,246.400 17.693 C 245.630 17.693,245.315 17.775,245.700 17.876 M249.500 18.282 C 249.995 18.378,250.805 18.378,251.300 18.282 C 251.795 18.187,251.390 18.109,250.400 18.109 C 249.410 18.109,249.005 18.187,249.500 18.282 M214.800 18.800 C 213.864 18.997,214.924 19.110,218.000 19.141 C 220.530 19.167,222.870 19.013,223.200 18.800 C 223.914 18.339,216.992 18.339,214.800 18.800 M226.512 18.695 C 227.564 18.777,229.184 18.776,230.112 18.692 C 231.040 18.608,230.180 18.541,228.200 18.542 C 226.220 18.543,225.460 18.612,226.512 18.695 M233.200 18.800 C 233.530 19.013,236.320 19.166,239.400 19.140 C 243.652 19.104,244.519 19.018,243.000 18.782 C 239.993 18.313,232.469 18.327,233.200 18.800 M211.700 23.887 C 212.305 23.978,213.295 23.978,213.900 23.887 C 214.505 23.795,214.010 23.720,212.800 23.720 C 211.590 23.720,211.095 23.795,211.700 23.887 M244.700 23.889 C 245.415 23.978,246.585 23.978,247.300 23.889 C 248.015 23.801,247.430 23.728,246.000 23.728 C 244.570 23.728,243.985 23.801,244.700 23.889 M225.903 34.900 C 225.960 40.675,226.057 47.110,226.119 49.200 C 226.182 51.290,226.270 46.565,226.316 38.700 C 226.362 30.835,226.265 24.400,226.100 24.400 C 225.935 24.399,225.846 29.124,225.903 34.900 M280.928 43.600 C 280.928 45.030,281.001 45.615,281.089 44.900 C 281.178 44.185,281.178 43.015,281.089 42.300 C 281.001 41.585,280.928 42.170,280.928 43.600 M280.944 54.000 C 280.944 56.090,281.012 56.945,281.094 55.900 C 281.176 54.855,281.176 53.145,281.094 52.100 C 281.012 51.055,280.944 51.910,280.944 54.000 M280.940 62.800 C 280.940 64.670,281.009 65.435,281.093 64.500 C 281.177 63.565,281.177 62.035,281.093 61.100 C 281.009 60.165,280.940 60.930,280.940 62.800 M323.200 68.765 C 323.200 69.171,324.223 69.111,324.655 68.678 C 324.808 68.525,324.543 68.400,324.067 68.400 C 323.590 68.400,323.200 68.564,323.200 68.765 M176.931 74.200 C 176.933 75.740,177.005 76.321,177.092 75.491 C 177.179 74.661,177.177 73.401,177.089 72.691 C 177.000 71.981,176.929 72.660,176.931 74.200 M176.124 90.200 C 176.126 91.520,176.201 92.012,176.290 91.293 C 176.379 90.574,176.377 89.494,176.286 88.893 C 176.195 88.292,176.122 88.880,176.124 90.200 M175.320 100.000 C 175.320 101.210,175.395 101.705,175.487 101.100 C 175.578 100.495,175.578 99.505,175.487 98.900 C 175.395 98.295,175.320 98.790,175.320 100.000 M180.909 105.200 C 180.909 106.190,180.987 106.595,181.082 106.100 C 181.178 105.605,181.178 104.795,181.082 104.300 C 180.987 103.805,180.909 104.210,180.909 105.200 M174.514 113.800 C 174.517 114.900,174.595 115.303,174.687 114.695 C 174.779 114.086,174.777 113.186,174.682 112.695 C 174.587 112.203,174.511 112.700,174.514 113.800 M180.109 114.400 C 180.109 115.390,180.187 115.795,180.282 115.300 C 180.378 114.805,180.378 113.995,180.282 113.500 C 180.187 113.005,180.109 113.410,180.109 114.400 M280.163 124.000 C 280.163 127.630,280.223 129.115,280.298 127.300 C 280.372 125.485,280.372 122.515,280.298 120.700 C 280.223 118.885,280.163 120.370,280.163 124.000 M226.182 135.400 C 226.182 144.200,226.235 147.743,226.300 143.273 C 226.364 138.804,226.364 131.604,226.299 127.273 C 226.235 122.943,226.182 126.600,226.182 135.400 M173.714 123.000 C 173.717 124.100,173.795 124.503,173.887 123.895 C 173.979 123.286,173.977 122.386,173.882 121.895 C 173.787 121.403,173.711 121.900,173.714 123.000 M179.309 127.600 C 179.309 128.590,179.387 128.995,179.482 128.500 C 179.578 128.005,179.578 127.195,179.482 126.700 C 179.387 126.205,179.309 126.610,179.309 127.600 M172.914 135.400 C 172.917 136.500,172.995 136.903,173.087 136.295 C 173.179 135.686,173.177 134.786,173.082 134.295 C 172.987 133.803,172.911 134.300,172.914 135.400 M273.754 146.800 C 273.754 149.550,273.818 150.675,273.896 149.300 C 273.974 147.925,273.974 145.675,273.896 144.300 C 273.818 142.925,273.754 144.050,273.754 146.800 M172.114 144.200 C 172.117 145.300,172.195 145.703,172.287 145.095 C 172.379 144.486,172.377 143.586,172.282 143.095 C 172.187 142.603,172.111 143.100,172.114 144.200 M177.709 149.200 C 177.709 150.190,177.787 150.595,177.882 150.100 C 177.978 149.605,177.978 148.795,177.882 148.300 C 177.787 147.805,177.709 148.210,177.709 149.200 M171.309 157.600 C 171.309 158.590,171.387 158.995,171.482 158.500 C 171.578 158.005,171.578 157.195,171.482 156.700 C 171.387 156.205,171.309 156.610,171.309 157.600 M176.914 158.200 C 176.917 159.300,176.995 159.703,177.087 159.095 C 177.179 158.486,177.177 157.586,177.082 157.095 C 176.987 156.603,176.911 157.100,176.914 158.200 M225.354 168.000 C 225.354 170.750,225.418 171.875,225.496 170.500 C 225.574 169.125,225.574 166.875,225.496 165.500 C 225.418 164.125,225.354 165.250,225.354 168.000 M278.544 172.800 C 278.544 174.890,278.612 175.745,278.694 174.700 C 278.776 173.655,278.776 171.945,278.694 170.900 C 278.612 169.855,278.544 170.710,278.544 172.800 M176.124 171.800 C 176.126 173.120,176.201 173.612,176.290 172.893 C 176.379 172.174,176.377 171.094,176.286 170.493 C 176.195 169.892,176.122 170.480,176.124 171.800 M126.937 173.400 C 126.939 175.160,127.009 175.830,127.093 174.889 C 127.178 173.949,127.177 172.509,127.091 171.689 C 127.005 170.870,126.936 171.640,126.937 173.400 M175.320 182.000 C 175.320 183.210,175.395 183.705,175.487 183.100 C 175.578 182.495,175.578 181.505,175.487 180.900 C 175.395 180.295,175.320 180.790,175.320 182.000 M243.320 185.200 C 243.320 186.410,243.395 186.905,243.487 186.300 C 243.578 185.695,243.578 184.705,243.487 184.100 C 243.395 183.495,243.320 183.990,243.320 185.200 M272.134 186.400 C 272.134 188.050,272.205 188.725,272.291 187.900 C 272.378 187.075,272.378 185.725,272.291 184.900 C 272.205 184.075,272.134 184.750,272.134 186.400 M230.140 193.600 C 230.140 195.470,230.209 196.235,230.293 195.300 C 230.377 194.365,230.377 192.835,230.293 191.900 C 230.209 190.965,230.140 191.730,230.140 193.600 M126.146 198.200 C 126.147 200.400,126.214 201.249,126.295 200.087 C 126.376 198.924,126.376 197.124,126.293 196.087 C 126.211 195.049,126.145 196.000,126.146 198.200 M193.314 197.400 C 193.317 198.500,193.395 198.903,193.487 198.295 C 193.579 197.686,193.577 196.786,193.482 196.295 C 193.387 195.803,193.311 196.300,193.314 197.400 M242.520 198.000 C 242.520 199.210,242.595 199.705,242.687 199.100 C 242.778 198.495,242.778 197.505,242.687 196.900 C 242.595 196.295,242.520 196.790,242.520 198.000 M276.928 205.200 C 276.928 206.630,277.001 207.215,277.089 206.500 C 277.178 205.785,277.178 204.615,277.089 203.900 C 277.001 203.185,276.928 203.770,276.928 205.200 M223.737 207.400 C 223.739 209.160,223.809 209.830,223.893 208.889 C 223.978 207.949,223.977 206.509,223.891 205.689 C 223.805 204.870,223.736 205.640,223.737 207.400 M241.720 207.200 C 241.720 208.410,241.795 208.905,241.887 208.300 C 241.978 207.695,241.978 206.705,241.887 206.100 C 241.795 205.495,241.720 205.990,241.720 207.200 M192.520 210.400 C 192.520 211.610,192.595 212.105,192.687 211.500 C 192.778 210.895,192.778 209.905,192.687 209.300 C 192.595 208.695,192.520 209.190,192.520 210.400 M125.340 212.800 C 125.340 214.670,125.409 215.435,125.493 214.500 C 125.577 213.565,125.577 212.035,125.493 211.100 C 125.409 210.165,125.340 210.930,125.340 212.800 M247.301 211.800 C 247.305 212.680,247.387 212.993,247.483 212.495 C 247.579 211.998,247.575 211.278,247.475 210.895 C 247.375 210.513,247.296 210.920,247.301 211.800 M229.334 214.000 C 229.334 215.650,229.405 216.325,229.491 215.500 C 229.578 214.675,229.578 213.325,229.491 212.500 C 229.405 211.675,229.334 212.350,229.334 214.000 M130.937 220.200 C 130.939 221.960,131.009 222.630,131.093 221.689 C 131.178 220.749,131.177 219.309,131.091 218.489 C 131.005 217.670,130.936 218.440,130.937 220.200 M191.720 220.000 C 191.720 221.210,191.795 221.705,191.887 221.100 C 191.978 220.495,191.978 219.505,191.887 218.900 C 191.795 218.295,191.720 218.790,191.720 220.000 M240.914 219.800 C 240.917 220.900,240.995 221.303,241.087 220.695 C 241.179 220.086,241.177 219.186,241.082 218.695 C 240.987 218.203,240.911 218.700,240.914 219.800 M276.120 221.200 C 276.120 222.410,276.195 222.905,276.287 222.300 C 276.378 221.695,276.378 220.705,276.287 220.100 C 276.195 219.495,276.120 219.990,276.120 221.200 M197.320 225.200 C 197.320 226.410,197.395 226.905,197.487 226.300 C 197.578 225.695,197.578 224.705,197.487 224.100 C 197.395 223.495,197.320 223.990,197.320 225.200 M228.531 226.200 C 228.533 227.740,228.605 228.321,228.692 227.491 C 228.779 226.661,228.777 225.401,228.689 224.691 C 228.600 223.981,228.529 224.660,228.531 226.200 M16.987 224.600 C 16.884 224.930,16.716 225.470,16.613 225.800 C 16.509 226.130,16.588 226.400,16.786 226.400 C 16.984 226.400,17.222 226.895,17.313 227.500 C 17.405 228.105,17.507 227.565,17.540 226.300 C 17.598 224.069,17.371 223.371,16.987 224.600 M240.120 229.200 C 240.120 230.410,240.195 230.905,240.287 230.300 C 240.378 229.695,240.378 228.705,240.287 228.100 C 240.195 227.495,240.120 227.990,240.120 229.200 M275.320 231.200 C 275.320 232.410,275.395 232.905,275.487 232.300 C 275.578 231.695,275.578 230.705,275.487 230.100 C 275.395 229.495,275.320 229.990,275.320 231.200 M124.537 232.600 C 124.539 234.360,124.609 235.030,124.693 234.089 C 124.778 233.149,124.777 231.709,124.691 230.889 C 124.605 230.070,124.536 230.840,124.537 232.600 M76.937 234.200 C 76.939 235.960,77.009 236.630,77.093 235.689 C 77.178 234.749,77.177 233.309,77.091 232.489 C 77.005 231.670,76.936 232.440,76.937 234.200 M190.924 234.600 C 190.926 235.920,191.001 236.412,191.090 235.693 C 191.179 234.974,191.177 233.894,191.086 233.293 C 190.995 232.692,190.922 233.280,190.924 234.600 M245.714 234.200 C 245.717 235.300,245.795 235.703,245.887 235.095 C 245.979 234.486,245.977 233.586,245.882 233.095 C 245.787 232.603,245.711 233.100,245.714 234.200 M222.124 236.600 C 222.126 237.920,222.201 238.412,222.290 237.693 C 222.379 236.974,222.377 235.894,222.286 235.293 C 222.195 234.692,222.122 235.280,222.124 236.600 M143.320 240.800 C 143.320 242.010,143.395 242.505,143.487 241.900 C 143.578 241.295,143.578 240.305,143.487 239.700 C 143.395 239.095,143.320 239.590,143.320 240.800 M227.724 242.200 C 227.726 243.520,227.801 244.012,227.890 243.293 C 227.979 242.574,227.977 241.494,227.886 240.893 C 227.795 240.292,227.722 240.880,227.724 242.200 M239.314 243.400 C 239.317 244.500,239.395 244.903,239.487 244.295 C 239.579 243.686,239.577 242.786,239.482 242.295 C 239.387 241.803,239.311 242.300,239.314 243.400 M195.731 251.800 C 195.733 253.340,195.805 253.921,195.892 253.091 C 195.979 252.261,195.977 251.001,195.889 250.291 C 195.800 249.581,195.729 250.260,195.731 251.800 M226.924 252.200 C 226.926 253.520,227.001 254.012,227.090 253.293 C 227.179 252.574,227.177 251.494,227.086 250.893 C 226.995 250.292,226.922 250.880,226.924 252.200 M76.131 253.000 C 76.133 254.540,76.205 255.121,76.292 254.291 C 76.379 253.461,76.377 252.201,76.289 251.491 C 76.200 250.781,76.129 251.460,76.131 253.000 M238.528 254.000 C 238.528 255.430,238.601 256.015,238.689 255.300 C 238.778 254.585,238.778 253.415,238.689 252.700 C 238.601 251.985,238.528 252.570,238.528 254.000 M81.600 254.200 C 81.600 254.750,81.761 255.200,81.958 255.200 C 82.154 255.200,82.289 254.750,82.258 254.200 C 82.182 252.897,81.600 252.897,81.600 254.200 M244.131 259.800 C 244.133 261.340,244.205 261.921,244.292 261.091 C 244.379 260.261,244.377 259.001,244.289 258.291 C 244.200 257.581,244.129 258.260,244.131 259.800 M189.334 264.000 C 189.334 265.650,189.405 266.325,189.491 265.500 C 189.578 264.675,189.578 263.325,189.491 262.500 C 189.405 261.675,189.334 262.350,189.334 264.000 M75.334 264.800 C 75.334 266.450,75.405 267.125,75.491 266.300 C 75.578 265.475,75.578 264.125,75.491 263.300 C 75.405 262.475,75.334 263.150,75.334 264.800 M226.120 266.000 C 226.120 267.210,226.195 267.705,226.287 267.100 C 226.378 266.495,226.378 265.505,226.287 264.900 C 226.195 264.295,226.120 264.790,226.120 266.000 M7.072 267.756 C 6.686 268.763,6.833 291.600,7.226 291.600 C 7.450 291.600,7.600 286.702,7.600 279.400 C 7.600 267.686,7.547 266.519,7.072 267.756 M237.728 271.600 C 237.728 273.030,237.801 273.615,237.889 272.900 C 237.978 272.185,237.978 271.015,237.889 270.300 C 237.801 269.585,237.728 270.170,237.728 271.600 M243.334 272.000 C 243.334 273.650,243.405 274.325,243.491 273.500 C 243.578 272.675,243.578 271.325,243.491 270.500 C 243.405 269.675,243.334 270.350,243.334 272.000 M225.320 275.200 C 225.320 276.410,225.395 276.905,225.487 276.300 C 225.578 275.695,225.578 274.705,225.487 274.100 C 225.395 273.495,225.320 273.990,225.320 275.200 M43.331 278.600 C 43.333 280.140,43.405 280.721,43.492 279.891 C 43.579 279.061,43.577 277.801,43.489 277.091 C 43.400 276.381,43.329 277.060,43.331 278.600 M194.151 288.400 C 194.151 290.930,194.216 291.965,194.296 290.700 C 194.375 289.435,194.375 287.365,194.296 286.100 C 194.216 284.835,194.151 285.870,194.151 288.400 M42.540 290.800 C 42.540 292.670,42.609 293.435,42.693 292.500 C 42.777 291.565,42.777 290.035,42.693 289.100 C 42.609 288.165,42.540 288.930,42.540 290.800 M242.546 293.800 C 242.547 296.000,242.614 296.849,242.695 295.687 C 242.776 294.524,242.776 292.724,242.693 291.687 C 242.611 290.649,242.545 291.600,242.546 293.800 M72.920 302.800 C 72.920 304.010,72.995 304.505,73.087 303.900 C 73.178 303.295,73.178 302.305,73.087 301.700 C 72.995 301.095,72.920 301.590,72.920 302.800 M187.762 310.200 C 187.762 313.720,187.824 315.106,187.898 313.281 C 187.972 311.456,187.972 308.576,187.897 306.881 C 187.822 305.186,187.761 306.680,187.762 310.200 M241.757 313.200 C 241.757 316.170,241.820 317.385,241.897 315.900 C 241.974 314.415,241.974 311.985,241.897 310.500 C 241.820 309.015,241.757 310.230,241.757 313.200 M41.751 312.800 C 41.751 315.330,41.816 316.365,41.896 315.100 C 41.975 313.835,41.975 311.765,41.896 310.500 C 41.816 309.235,41.751 310.270,41.751 312.800 M47.344 313.200 C 47.344 315.290,47.412 316.145,47.494 315.100 C 47.576 314.055,47.576 312.345,47.494 311.300 C 47.412 310.255,47.344 311.110,47.344 313.200 M77.720 316.400 C 77.720 317.610,77.795 318.105,77.887 317.500 C 77.978 316.895,77.978 315.905,77.887 315.300 C 77.795 314.695,77.720 315.190,77.720 316.400 M193.372 326.800 C 193.372 331.970,193.429 334.085,193.499 331.500 C 193.568 328.915,193.568 324.685,193.499 322.100 C 193.429 319.515,193.372 321.630,193.372 326.800 M95.720 321.200 C 95.720 322.410,95.795 322.905,95.887 322.300 C 95.978 321.695,95.978 320.705,95.887 320.100 C 95.795 319.495,95.720 319.990,95.720 321.200 M14.594 321.638 C 14.441 322.539,14.483 323.443,14.687 323.647 C 14.913 323.873,15.092 323.238,15.148 322.008 C 15.259 319.581,14.973 319.390,14.594 321.638 M71.309 324.400 C 71.309 325.390,71.387 325.795,71.482 325.300 C 71.578 324.805,71.578 323.995,71.482 323.500 C 71.387 323.005,71.309 323.410,71.309 324.400 M139.363 331.600 C 139.363 335.230,139.423 336.715,139.498 334.900 C 139.572 333.085,139.572 330.115,139.498 328.300 C 139.423 326.485,139.363 327.970,139.363 331.600 M40.958 333.000 C 40.958 336.080,41.021 337.287,41.097 335.682 C 41.173 334.078,41.173 331.558,41.096 330.082 C 41.019 328.607,40.957 329.920,40.958 333.000 M76.909 329.200 C 76.909 330.190,76.987 330.595,77.082 330.100 C 77.178 329.605,77.178 328.795,77.082 328.300 C 76.987 327.805,76.909 328.210,76.909 329.200 M89.353 336.600 C 89.353 339.240,89.418 340.268,89.497 338.884 C 89.575 337.501,89.574 335.341,89.495 334.084 C 89.416 332.828,89.352 333.960,89.353 336.600 M76.120 338.000 C 76.120 339.210,76.195 339.705,76.287 339.100 C 76.378 338.495,76.378 337.505,76.287 336.900 C 76.195 336.295,76.120 336.790,76.120 338.000 M46.564 346.200 C 46.563 349.940,46.623 351.524,46.697 349.720 C 46.771 347.915,46.772 344.855,46.698 342.920 C 46.625 340.984,46.564 342.460,46.564 346.200 M94.958 347.800 C 94.958 350.880,95.021 352.087,95.097 350.482 C 95.173 348.878,95.173 346.358,95.096 344.882 C 95.019 343.407,94.957 344.720,94.958 347.800 M75.314 351.400 C 75.317 352.500,75.395 352.903,75.487 352.295 C 75.579 351.686,75.577 350.786,75.482 350.295 C 75.387 349.803,75.311 350.300,75.314 351.400 M94.180 382.400 C 94.180 389.990,94.234 393.095,94.299 389.300 C 94.365 385.505,94.365 379.295,94.299 375.500 C 94.234 371.705,94.180 374.810,94.180 382.400 M72.702 388.600 C 72.597 389.150,72.666 389.600,72.855 389.600 C 73.045 389.600,73.200 389.150,73.200 388.600 C 73.200 388.050,73.131 387.600,73.047 387.600 C 72.962 387.600,72.807 388.050,72.702 388.600 M193.353 393.000 C 193.353 395.640,193.418 396.668,193.497 395.284 C 193.575 393.901,193.574 391.741,193.495 390.484 C 193.416 389.228,193.352 390.360,193.353 393.000 " stroke="none" fill="#04ccd4" fill-rule="evenodd"></path></g></svg>